<svg width="321" height="115" viewBox="0 0 321 115" fill="none" xmlns="http://www.w3.org/2000/svg">
<path fill-rule="evenodd" clip-rule="evenodd" d="M43.8592 0.0654046C43.5674 0.148764 43.0672 0.398842 42.7338 0.628081C42.4003 0.83648 42.0043 1.27412 41.8584 1.58671C41.6917 1.92015 41.5667 2.54535 41.5667 3.00383C41.5667 3.4623 41.6709 4.04582 41.8168 4.2959C41.9418 4.56682 42.2961 4.98361 42.5879 5.25453C42.8797 5.50461 43.3173 5.77553 43.5466 5.83805C43.9217 5.96309 43.9425 6.08813 43.7967 7.04676C43.7133 7.63028 43.5049 9.23495 43.3382 10.6104C43.1714 11.9858 42.9005 14.049 42.7338 15.1951C42.567 16.3413 42.2753 18.0294 42.1085 18.9463C41.9418 19.8633 41.5458 21.5513 41.2541 22.6975C40.9414 23.8437 40.4413 25.24 40.1495 25.8026C39.8369 26.3653 39.2533 27.1989 38.8573 27.6574C38.4614 28.1159 37.7111 28.7827 37.1901 29.1162C36.669 29.4705 35.7312 29.9289 35.106 30.1582C34.2932 30.4291 33.397 30.5541 31.9798 30.5541C30.3751 30.5541 29.7707 30.4499 28.7495 30.054C28.0617 29.7831 27.0822 29.2621 26.5612 28.9078C26.0401 28.5743 25.3107 27.9283 24.9356 27.5115C24.5813 27.0947 24.1019 26.4487 23.9144 26.0736C23.7059 25.7193 23.3933 24.9899 23.2058 24.4689L22.8723 23.5311C24.1228 22.635 24.623 22.0515 24.7897 21.6555C24.9564 21.2595 25.1023 20.676 25.1023 20.3426C25.0815 20.03 24.873 19.4256 24.623 18.988C24.352 18.5295 23.831 18.0294 23.3308 17.7793C22.6847 17.4459 22.2888 17.3833 21.5593 17.5084C20.8507 17.6334 20.4131 17.8627 19.8504 18.467C19.1418 19.1756 19.0584 19.3631 19.0584 20.3426C19.0584 21.0789 19.1974 21.6694 19.4752 22.114C19.7045 22.4891 20.2672 22.9684 20.7048 23.156L21.5176 23.5311C20.6215 25.8026 20.1421 26.8446 19.8712 27.324C19.6003 27.8033 18.9959 28.6577 18.5374 29.1995C18.0372 29.7622 17.2869 30.3666 16.6617 30.6583C16.0573 30.9292 15.2237 31.1376 14.6818 31.1376C14.1608 31.1376 13.3688 30.9501 12.9103 30.7625C12.4518 30.5541 11.6599 30.0123 11.1597 29.5538C10.6595 29.1162 9.86754 28.1784 9.40904 27.4907C8.9297 26.803 8.11689 25.3025 7.57503 24.1563C7.03316 23.0101 6.11617 20.7386 5.53262 19.0922L4.46973 16.1329C5.44925 15.0909 5.80355 14.5491 5.86607 14.2574C5.92859 13.9656 5.92859 13.257 5.86607 12.6944C5.78271 11.8608 5.63682 11.5273 5.1158 11.0689C4.7615 10.7563 4.11543 10.4228 3.69861 10.3186C3.17759 10.1936 2.63572 10.1936 2.17722 10.3395C1.78124 10.4645 1.15601 10.8396 0.822554 11.2147C0.468258 11.569 0.113962 12.1942 0.0514389 12.5902C-0.031925 12.9861 -0.0110831 13.653 0.0931218 14.049C0.197327 14.4449 0.551623 15.0284 0.864237 15.341C1.17685 15.6536 1.80208 16.0287 2.26058 16.1746C3.05254 16.4455 3.07338 16.4872 3.55272 18.2169C3.82366 19.1964 4.38636 21.2179 4.7615 22.6975C5.15748 24.1771 5.97028 27.1989 6.55383 29.3663C7.15821 31.5336 7.86681 34.1803 8.13774 35.2014C8.40867 36.2226 8.88802 38.0148 9.17979 39.161C9.47156 40.3072 9.78418 41.3283 9.8467 41.4117C9.93006 41.5159 10.8471 41.3075 11.8683 40.9741C12.8895 40.6198 15.3279 39.7654 17.2869 39.0568C19.246 38.3691 21.8719 37.5146 23.1224 37.1812C24.3729 36.8478 26.7279 36.2851 28.3326 35.9517C29.9374 35.6182 32.3758 35.2014 33.7513 35.0139C35.1268 34.8471 37.0859 34.5971 38.1279 34.4929C39.17 34.3678 41.9835 34.2636 44.3802 34.2636C46.7978 34.2636 50.1115 34.4095 51.7788 34.5762C53.446 34.7429 55.4468 34.993 56.2596 35.0972C57.0724 35.2223 58.698 35.514 59.9067 35.7641C61.1155 35.9933 63.3247 36.4935 64.8044 36.8895C66.2841 37.2646 68.0764 37.7856 68.7641 38.0356C69.4519 38.2857 71.5985 39.036 73.5576 39.7237C75.5166 40.4114 77.4965 41.0991 77.9967 41.2658C78.476 41.4325 78.9137 41.5367 78.9345 41.4951C78.9762 41.4742 79.4139 39.9112 79.9141 38.0148C80.3934 36.1184 80.9144 34.1594 81.0603 33.6384C81.2271 33.1174 81.6439 31.5753 81.9982 30.1999C82.3733 28.8244 82.9777 26.532 83.3737 25.0941C83.7488 23.6561 84.0614 22.3015 84.0614 22.0723C84.0406 21.7389 84.0197 21.718 83.9572 22.0098C83.9155 22.2182 83.7697 22.3849 83.6655 22.3849C83.5612 22.3849 83.2903 22.239 83.1027 22.0515C82.8943 21.8847 82.6651 21.8014 82.6026 21.9056C82.54 21.9889 82.1232 22.8642 81.6856 23.8437C81.2271 24.8232 80.4559 26.2611 79.9349 27.0739C79.4347 27.8866 78.6844 28.8869 78.2676 29.3246C77.8508 29.7622 77.0589 30.3457 76.4753 30.6375C75.7459 30.9918 75.0998 31.1376 74.287 31.1376C73.5228 31.1376 72.8351 30.9779 72.2237 30.6583C71.7027 30.4083 70.8691 29.7205 70.3689 29.1579C69.8479 28.5743 69.0768 27.3656 68.6391 26.4487C68.2014 25.5317 67.7846 24.4897 67.7013 24.1563C67.597 23.5728 67.6387 23.5103 68.4724 23.1143C68.9517 22.8851 69.5353 22.4057 69.7437 22.0723C69.9521 21.718 70.1188 21.0511 70.1188 20.5093C70.1188 19.9466 69.9521 19.3006 69.702 18.8838C69.4519 18.4878 68.8892 18.0502 68.3056 17.7793C67.4095 17.3833 67.2219 17.3625 66.5758 17.5917C66.1799 17.7376 65.5963 18.071 65.2629 18.3003C64.9503 18.5504 64.5959 19.0297 64.4501 19.3631C64.325 19.7174 64.2625 20.3843 64.3459 20.9261C64.4292 21.5513 64.6585 22.0515 65.0545 22.4474C65.3671 22.76 65.8047 23.0726 66.0131 23.1143C66.2632 23.1977 66.3257 23.3435 66.2424 23.677C66.1799 23.9479 65.9715 24.4897 65.7839 24.8857C65.6172 25.2816 65.0961 26.1361 64.6376 26.7613C64.1583 27.3865 63.5539 28.1159 63.2621 28.3868C62.9704 28.6577 62.3451 29.0953 61.8866 29.3663C61.4281 29.6372 60.4903 30.0123 59.8025 30.2207C58.8647 30.4708 58.1352 30.5333 56.8848 30.4499C55.9678 30.3874 54.8632 30.2207 54.4464 30.1165C54.0087 29.9915 53.2585 29.5747 52.7791 29.1995C52.2998 28.8453 51.4661 27.8866 50.9243 27.0739C50.4032 26.2611 49.6738 24.9065 49.3195 24.0521C48.9652 23.1977 48.4442 21.6347 48.1524 20.6135C47.8815 19.5924 47.4438 17.7585 47.1937 16.5497C46.9436 15.341 46.6102 13.5696 46.4435 12.5902C46.2976 11.6107 46.0058 9.69342 45.8182 8.31799C45.5473 6.25485 45.5265 5.79637 45.7765 5.71301C45.9224 5.67133 46.235 5.44209 46.4643 5.19201C46.6936 4.96277 47.0062 4.56682 47.152 4.2959C47.2771 4.04582 47.4021 3.44146 47.4021 2.94131C47.4021 2.44115 47.2146 1.77427 46.9853 1.37832C46.7561 1.02404 46.3184 0.586401 46.0058 0.419682C45.6723 0.273803 45.193 0.0862445 44.9012 0.0445648C44.6095 -0.0179548 44.1509 -0.0179548 43.8592 0.0654046ZM40.212 36.556C38.6072 36.6394 36.3981 36.8269 35.3144 36.952C34.2306 37.0978 32.6259 37.3271 31.7714 37.4938C30.9169 37.6605 29.2288 38.0148 28.02 38.2857C26.8113 38.5775 24.6646 39.1402 23.2266 39.5569C21.7886 39.9529 19.7253 40.6198 18.6416 41.0366C17.1619 41.5784 16.8701 41.7451 17.4953 41.6618C17.9538 41.6201 18.8917 41.5159 19.5794 41.4534C20.2672 41.3909 22.1429 41.245 23.7476 41.1408C25.3524 41.0157 28.5827 40.8282 30.9378 40.724C33.2928 40.6198 39.6076 40.5364 45.0054 40.5364C50.4032 40.5364 56.5722 40.6198 58.7605 40.724C60.9488 40.8282 64.7002 41.0574 67.0969 41.245C69.4936 41.4117 71.661 41.5993 71.8903 41.6618C72.1195 41.7243 72.0153 41.6409 71.6819 41.4742C71.3484 41.3075 70.6815 41.0366 70.223 40.8699C69.7645 40.6823 68.4932 40.3072 67.4095 40.0154C66.3258 39.7028 63.929 39.1402 62.095 38.7442C60.261 38.3482 57.3016 37.8064 55.5301 37.5146C53.7586 37.2229 50.5908 36.8478 48.5067 36.681C46.4018 36.4935 44.3385 36.3685 43.9217 36.3893C43.484 36.4101 41.8168 36.4727 40.212 36.556ZM28.0409 48.8932C27.9367 49.1641 26.5195 53.3113 24.8939 58.1253C23.2683 62.9393 21.8094 67.2948 21.6635 67.8158C21.5176 68.3368 19.6628 73.9011 17.537 80.2155C15.4112 86.5092 13.6189 91.8442 13.5564 92.0317C13.473 92.3027 13.8065 92.8028 14.7443 93.7614C15.4529 94.5117 16.099 95.0535 16.1824 94.9702C16.2449 94.866 16.9118 92.8862 17.6621 90.5313C18.4123 88.1764 19.7253 84.0084 20.6215 81.2575C21.4968 78.5067 22.6639 74.8389 23.2266 73.13C23.7893 71.4003 24.8105 68.1701 25.5191 65.9402C26.2069 63.7104 26.8321 61.7306 26.8946 61.5639C26.9988 61.2929 27.0197 61.2929 27.1864 61.5639C27.2698 61.7306 28.1242 64.1272 29.0412 66.878C29.9791 69.6289 31.4171 73.8594 32.2299 76.256C33.0427 78.6525 33.7721 80.8199 33.8555 81.0491C33.9597 81.2784 34.1681 81.9036 34.3557 82.4454C34.5433 83.0081 34.8142 83.4457 34.9601 83.4457C35.0851 83.4457 35.9604 83.8 36.8774 84.2585C38.0237 84.8211 39.0658 85.5714 40.212 86.6551C41.525 87.8846 41.9418 88.1555 42.1502 87.968C42.2961 87.8221 42.4003 87.5303 42.4003 87.3011C42.4003 87.0719 42.0043 85.7173 41.4833 84.2793C40.9831 82.8414 39.6701 79.1527 38.5864 76.0476C37.4818 72.9424 34.9809 65.8777 33.0219 60.3135C31.0628 54.7492 29.2913 49.8102 29.1038 49.31C28.9162 48.8307 28.6244 48.4139 28.4785 48.4347C28.3326 48.4347 28.1451 48.6431 28.0409 48.8932ZM37.6069 49.2683V50.1019C39.7952 50.4562 40.9831 50.7271 41.6709 50.9564C42.7129 51.269 43.0047 51.4774 43.3798 52.1234C43.6299 52.561 43.9842 53.5405 44.151 54.3116C44.4427 55.5203 44.4844 57.7502 44.4844 69.9415L44.5052 84.1751C45.1513 83.3624 45.7349 82.6538 46.2142 82.0911C46.6936 81.5076 47.7148 80.4448 48.4859 79.6945L49.8614 78.3399C50.0281 57.4792 50.1115 55.6245 50.4032 54.3741C50.5908 53.5613 50.9243 52.6236 51.1327 52.2901C51.3619 51.9567 51.883 51.4982 52.3206 51.3106C52.7791 51.1231 53.4669 50.873 53.8628 50.748C54.2588 50.6438 55.28 50.4562 56.1137 50.3312L57.6142 50.1019V48.4347H37.6069V49.2683ZM65.7422 49.2058V49.9977C69.0351 50.5812 69.9521 50.8522 70.1813 51.0814C70.3897 51.2898 70.5982 51.7483 70.6607 52.0817C70.744 52.4151 70.6815 53.2279 70.5356 53.8531C70.3897 54.4783 69.8896 55.7079 69.4311 56.5623C68.9726 57.4167 68.2223 58.688 67.7429 59.3757C67.2844 60.0634 65.9715 61.7931 64.8252 63.231C63.679 64.669 62.6994 65.8777 62.6161 65.9402C62.5535 66.0027 61.4698 67.3157 60.2193 68.8578C58.9689 70.4 57.5309 72.1922 57.0098 72.8174C56.4888 73.4426 55.8427 74.1928 55.5926 74.4846C55.3426 74.7763 55.155 75.0264 55.1758 75.0472C55.1967 75.0889 55.7385 74.943 56.3638 74.7138C56.989 74.5054 57.8435 74.2762 58.2395 74.2136C58.8647 74.0886 59.2815 73.6926 61.1572 71.4211C62.3451 69.9415 65.3879 66.1903 67.9305 63.0435C70.4523 59.9175 72.8281 56.9166 73.2241 56.3747C73.6201 55.8537 74.808 54.5617 75.8292 53.4988C77.1631 52.1651 78.0801 51.4357 78.872 51.0606C79.4973 50.7688 80.3934 50.4979 80.8519 50.4354C81.3104 50.3937 82.3733 50.2895 83.2069 50.227L84.7075 50.1019L84.6033 48.4347H65.7422V49.2058ZM23.5392 50.6021C22.518 50.873 21.205 51.2898 20.6215 51.4982C20.0588 51.7274 18.6416 52.3943 17.4953 52.957C16.3491 53.5405 14.7026 54.4991 13.8482 55.1243C12.9937 55.7287 11.3889 57.125 10.2844 58.2086C9.20063 59.3131 7.78344 61.0012 7.13737 61.9598C6.51214 62.9393 5.76187 64.1688 5.4701 64.669C5.19916 65.19 4.65729 66.3779 4.303 67.274C3.92786 68.1909 3.34431 70.0665 3.01086 71.4419C2.65656 72.8799 2.30226 75.1723 2.15638 76.7561C2.01049 78.465 1.96881 80.6532 2.05217 82.2787C2.13553 83.7791 2.38563 85.8423 2.59404 86.8634C2.80245 87.9054 3.17759 89.3642 3.44852 90.0936C3.69861 90.8439 4.21964 92.1151 4.59477 92.907C4.96991 93.7198 5.6785 94.991 6.15785 95.7204C6.63719 96.4706 7.88765 97.9294 8.95054 98.9506C10.1385 100.138 11.514 101.222 12.5977 101.868C13.5772 102.452 15.2028 103.264 16.2449 103.681C17.2661 104.077 18.975 104.598 19.9963 104.807C21.3718 105.098 22.7264 105.203 25.1023 105.203C27.4365 105.203 28.8328 105.098 30.1041 104.827C31.0837 104.619 32.7301 104.119 33.7513 103.702C34.7934 103.285 36.2731 102.577 37.065 102.097C37.8361 101.639 39.1074 100.68 39.8577 99.9926C40.608 99.3257 41.6083 98.1795 42.0877 97.4918C42.567 96.8249 43.3173 95.5954 43.755 94.7826C44.1926 93.9907 44.7762 92.907 45.068 92.386C45.3597 91.8859 46.0683 90.698 46.6519 89.781C47.2354 88.8849 48.1941 87.4678 48.7776 86.6551C49.3612 85.8631 50.4449 84.5502 51.1744 83.7583C51.9038 82.9872 53.0292 81.9452 53.6544 81.4451C54.2797 80.9658 55.28 80.3406 55.8427 80.0488C56.4263 79.757 57.6142 79.3611 58.5104 79.1944C59.3857 79.0068 60.4486 78.8401 60.8446 78.8401C61.2406 78.8401 62.2618 78.986 63.0954 79.1735C63.9082 79.3611 65.0545 79.7571 65.6172 80.0697C66.159 80.3614 67.0135 80.9866 67.4928 81.4451C67.993 81.9244 68.6599 82.758 68.9934 83.3207C69.3269 83.9042 69.7645 84.8837 69.9521 85.5089C70.2022 86.2383 70.3272 87.3011 70.3272 88.3222C70.3272 89.4684 70.1813 90.4479 69.8896 91.344C69.6603 92.0943 69.1601 93.2613 68.8058 93.949C68.4307 94.6159 67.5762 95.7829 66.8676 96.554C66.1799 97.3042 64.9502 98.3879 64.1583 98.9506C63.3663 99.5132 62.2618 100.201 61.6782 100.451C61.1155 100.701 59.9901 101.076 59.1773 101.264C58.0727 101.535 57.1766 101.576 55.5301 101.493C54.1963 101.41 52.8833 101.222 52.1956 100.972C51.5703 100.743 50.7992 100.451 50.4658 100.284L49.8822 99.9926L49.9239 88.9474C48.6526 90.7397 47.423 92.8028 46.3601 94.6784C45.318 96.5748 44.0467 98.6588 43.5257 99.3257C43.0255 99.9926 42.6087 100.597 42.6087 100.68C42.6087 100.764 43.0255 101.139 43.5466 101.514L44.4844 102.181C44.4844 104.536 44.3802 105.786 44.276 106.453C44.151 107.141 43.9217 107.995 43.755 108.329C43.6091 108.683 43.2131 109.225 42.8796 109.516C42.567 109.829 41.8793 110.267 41.3583 110.517C40.8372 110.746 39.816 111.059 39.0658 111.204L37.7111 111.475L37.6069 113.226H56.7806L56.6764 111.475C54.5714 111.059 53.5502 110.746 53.0292 110.496C52.5082 110.267 51.8413 109.787 51.5287 109.412C51.216 109.058 50.8201 108.287 50.6325 107.703C50.4658 107.141 50.2574 105.974 50.174 105.119C50.0073 103.64 50.0281 103.598 50.4241 103.723C50.6533 103.785 51.6329 103.994 52.6124 104.161C53.5919 104.348 55.1341 104.473 56.0512 104.473C56.9682 104.473 58.5729 104.286 59.5941 104.056C60.6987 103.827 62.2826 103.264 63.4497 102.702C64.5334 102.16 66.034 101.243 66.7634 100.659C67.4928 100.076 68.6808 98.8255 69.4102 97.9086C70.1396 97.0125 71.1609 95.4078 71.6819 94.3658C72.2029 93.3447 72.8073 91.74 73.0574 90.823C73.37 89.656 73.495 88.5306 73.495 86.9677C73.495 85.3421 73.3908 84.446 73.0574 83.4249C72.8281 82.6955 72.3696 81.6535 72.0362 81.1325C71.7027 80.6323 71.0775 79.8613 70.619 79.4236C70.1813 79.0068 69.5769 78.465 69.2852 78.2149C68.9934 77.9648 68.2014 77.5063 67.5137 77.1937C66.8259 76.8812 65.7422 76.4852 65.117 76.3393C64.4917 76.1726 63.0746 76.0684 61.9908 76.0684C60.7612 76.0892 59.3857 76.2768 58.3437 76.5477C57.4267 76.777 55.9261 77.3396 55.0091 77.7773C54.0921 78.2357 52.6332 79.1527 51.7788 79.8404C50.9243 80.5281 49.7363 81.591 49.1736 82.2162C48.5901 82.8205 47.7356 83.8 47.2771 84.3627C46.8186 84.9462 46.0475 85.9882 45.589 86.6551C45.1305 87.3428 44.4636 88.4264 44.1301 89.0516C43.7758 89.6977 42.8588 91.4691 42.0669 93.0112C40.9414 95.2411 40.3579 96.1372 39.2742 97.2625C38.5239 98.0545 37.3985 98.9922 36.7732 99.3674C36.148 99.7425 35.0018 100.305 34.2306 100.597C33.4387 100.91 31.8131 101.285 30.5835 101.472C28.7911 101.722 27.9367 101.743 26.4153 101.576C25.3524 101.451 24.0811 101.264 23.6017 101.16C23.1016 101.055 21.997 100.722 21.1425 100.43C20.288 100.118 18.8708 99.4924 18.0164 99.0339C17.1619 98.5754 15.9323 97.7835 15.307 97.3042C14.6818 96.8041 13.5981 95.8037 12.8895 95.0744C12.2017 94.345 11.2639 93.1779 10.7845 92.4902C10.326 91.8233 9.65913 90.6771 9.32568 89.9894C8.97138 89.3226 8.45035 87.9888 8.13774 87.0719C7.82512 86.1757 7.44999 84.5711 7.28326 83.5291C7.11653 82.5079 6.97064 80.2989 6.97064 78.6317C6.97064 76.9437 7.11653 74.7555 7.28326 73.6301C7.47083 72.5465 7.84596 70.8584 8.15858 69.879C8.45035 68.9203 8.95054 67.5657 9.26315 66.8572C9.57577 66.1695 10.2427 64.9607 10.722 64.148C11.2014 63.3561 12.035 62.189 12.556 61.543C13.0771 60.9178 13.9315 60.0009 14.4526 59.5007C14.9736 59.0214 15.9739 58.167 16.6617 57.646C17.3495 57.1041 18.6624 56.2288 19.5794 55.7078C20.4964 55.1869 22.0178 54.4366 22.9557 54.0407L24.6646 53.3113C25.3732 51.2273 25.6025 50.4979 25.6233 50.352C25.665 50.2061 25.6233 50.1019 25.54 50.1019C25.4774 50.1019 24.5813 50.3312 23.5392 50.6021ZM58.7188 81.4659C58.1144 81.6326 57.1557 82.0078 56.5722 82.2995C56.0095 82.5704 55.5301 82.8622 55.5301 82.9247C55.5301 82.9664 56.593 84.446 57.8852 86.1966C59.1773 87.9471 61.2197 90.7188 62.4285 92.3652C63.6164 94.0115 64.6376 95.387 64.7001 95.4286C64.7627 95.4703 65.1795 95.0327 65.638 94.47C66.0965 93.9073 66.7217 92.9487 67.0552 92.3443C67.3678 91.74 67.6179 91.0939 67.6179 90.8855C67.6179 90.6771 67.2844 90.0311 66.8468 89.4268C66.43 88.8224 65.4713 87.4886 64.7418 86.4675C63.9916 85.4255 62.8245 83.8 62.1576 82.8622C61.1363 81.4034 60.8654 81.1533 60.3861 81.1533C60.0526 81.1742 59.3023 81.2992 58.7188 81.4659ZM30.3125 85.3005C29.7915 85.4047 28.9162 85.6964 28.3535 85.9673C27.7699 86.2383 26.8529 86.926 26.2902 87.5095C25.7275 88.0722 24.9773 89.1558 24.623 89.9061C24.1436 90.8855 23.9352 91.6149 23.8935 92.6153C23.831 93.5947 23.9352 94.2616 24.2478 95.116C24.4979 95.8038 25.1231 96.7415 25.79 97.5126C26.3944 98.1795 27.374 99.0548 27.9367 99.4299C28.5411 99.8258 29.208 100.097 29.5831 100.076C29.9374 100.076 30.8544 99.9092 31.6255 99.7216C32.4175 99.5341 33.0219 99.284 33.001 99.1798C32.9802 99.0548 32.5217 98.8047 32.0007 98.5963C31.4796 98.4087 30.771 98.0961 30.4167 97.8877C30.0833 97.7002 29.3122 97.075 28.7495 96.4915C28.0617 95.7829 27.5615 95.0535 27.3323 94.3866C27.1447 93.8031 26.978 93.0112 26.978 92.6153C26.978 92.1985 27.1656 91.5107 27.374 91.0523C27.5615 90.573 28.0617 89.9269 28.4577 89.5935C28.8537 89.26 29.5831 88.8016 30.1041 88.5932C30.8336 88.2597 31.2921 88.1972 32.1882 88.3014C32.8135 88.3639 33.8138 88.6557 34.3765 88.9474C34.9601 89.2184 35.8771 89.8644 36.4398 90.3437C37.0025 90.8439 37.8778 91.8233 38.3572 92.5111L39.2533 93.7614C40.3996 91.4065 40.733 90.6355 40.733 90.5313C40.733 90.4062 40.0036 89.5726 39.1283 88.6765C37.8987 87.447 37.1275 86.8634 35.9396 86.3008C35.0851 85.884 33.7721 85.4463 33.0219 85.3213C32.2716 85.1963 31.5838 85.1129 31.4588 85.1337C31.3546 85.1337 30.8336 85.2171 30.3125 85.3005ZM71.536 98.9089C70.9941 99.6174 70.223 100.534 69.8062 100.951C69.4102 101.347 69.0768 101.806 69.0768 101.993C69.0768 102.16 69.2643 102.577 69.5144 102.931C69.7437 103.264 70.3689 104.39 70.8899 105.432C71.5777 106.786 71.8486 107.557 71.8486 108.245C71.8486 108.745 71.7444 109.391 71.6194 109.641C71.4735 109.891 70.9733 110.287 70.4939 110.517C69.9938 110.746 68.8267 111.059 67.868 111.204L66.159 111.475V113.247H87C87 111.663 86.9375 111.559 86.4373 111.454C86.1038 111.392 85.5203 111.267 85.1243 111.163C84.7283 111.059 83.8322 110.6 83.1444 110.142C82.4567 109.704 81.3938 108.766 80.7685 108.099C80.1433 107.432 79.1221 106.224 78.476 105.432C77.83 104.619 76.9755 103.514 76.5795 102.973C76.1835 102.431 75.1415 101.014 74.287 99.805C73.4325 98.5963 72.6823 97.596 72.6197 97.6168C72.5572 97.6168 72.0779 98.2003 71.536 98.9089ZM9.78418 103.16C9.70081 103.369 9.26315 104.536 8.78381 105.744C8.32531 106.932 7.63756 108.558 7.24158 109.329C6.86644 110.1 6.24121 111.017 5.88691 111.35C5.51178 111.684 4.82402 112.08 4.36552 112.205C3.90702 112.351 3.40684 112.496 3.28179 112.538C3.11506 112.58 3.01086 112.955 3.01086 113.455V114.289C13.2646 114.351 16.5575 114.351 16.9326 114.33C17.5579 114.289 17.5995 114.226 17.5995 113.455C17.5995 112.747 17.5162 112.601 17.141 112.517C16.8701 112.455 16.4533 112.413 16.2032 112.413C15.9323 112.413 15.2445 112.184 14.661 111.934C13.9315 111.621 13.4522 111.225 13.1604 110.746C12.827 110.183 12.7228 109.641 12.7019 108.454C12.7019 107.578 12.7644 106.39 12.8686 105.786L13.0145 104.702C11.3264 103.723 10.6387 103.285 10.3886 103.098C9.97175 102.785 9.93006 102.785 9.78418 103.16Z" fill="white"></path>
<path d="M135.261 29.321C135.675 29.0773 136.382 28.7604 136.772 28.5897C137.187 28.4435 138.283 28.3216 139.258 28.346C140.819 28.3947 141.087 28.4922 141.769 29.1504C142.208 29.5404 142.695 30.1742 142.89 30.5398C143.085 30.9054 143.232 31.7829 143.232 32.4898C143.207 33.3673 143.037 34.0742 142.671 34.708C142.379 35.2199 141.745 35.9268 141.282 36.3168C140.819 36.6824 139.722 37.3893 137.26 38.7543H138.186C138.673 38.7543 139.502 38.9737 140.014 39.2175C140.502 39.4856 141.282 40.0706 141.72 40.5581C142.135 41.0456 142.622 41.9232 142.769 42.4838C142.964 43.2151 142.988 43.8732 142.793 44.7507C142.647 45.4088 142.476 46.1401 142.403 46.3839C142.305 46.7008 142.379 46.8226 142.744 46.8226C143.012 46.8226 143.695 46.7008 144.28 46.5545C145.206 46.3351 145.377 46.1889 146.035 44.8238C146.449 43.9707 147.351 42.7763 148.107 42.0207C148.838 41.2894 150.057 40.3875 150.788 39.9975C151.666 39.5343 152.494 39.2662 153.177 39.2662C153.981 39.2662 154.274 39.3637 154.566 39.8025C154.761 40.095 154.932 40.6069 154.932 40.8994C154.932 41.1919 154.688 41.6063 154.396 41.8256C154.079 42.0207 153.689 42.1913 153.543 42.1913C153.372 42.1913 153.226 41.9232 153.226 41.6307C153.226 41.3381 153.031 40.875 152.787 40.6556C152.568 40.4119 152.08 40.2169 151.714 40.2169C151.259 40.2169 150.731 40.5338 150.13 41.1675C149.618 41.6794 148.96 42.6057 148.667 43.2394C148.351 43.8488 147.961 44.9945 147.766 45.7745C147.522 46.7495 147.497 47.4808 147.644 48.1633C147.766 48.6996 148.034 49.3821 148.229 49.6746C148.424 49.9671 148.862 50.3327 149.204 50.479C149.545 50.6008 150.301 50.7227 150.91 50.7227C151.519 50.7227 152.592 50.5033 153.299 50.2352C153.981 49.9671 155.151 49.3333 155.883 48.8214C156.614 48.3339 157.272 47.7489 157.369 47.5539C157.467 47.3345 157.686 46.6276 157.857 45.9695C158.003 45.287 158.442 44.312 158.832 43.7757C159.198 43.2151 159.978 42.3132 160.563 41.7525C161.148 41.1919 162.245 40.3875 162.976 39.9975C163.853 39.5343 164.682 39.2662 165.365 39.2662C166.169 39.2662 166.462 39.3637 166.754 39.8025C166.949 40.095 167.12 40.4606 167.12 40.6069C167.144 40.7287 166.803 41.265 166.388 41.8256C165.974 42.3619 165.218 43.0444 164.731 43.3369C164.243 43.6538 163.073 44.117 162.123 44.4095C161.196 44.6776 160.27 45.092 160.1 45.3114C159.929 45.5551 159.807 46.4083 159.807 47.3589C159.807 48.8702 159.88 49.0652 160.538 49.7477C161.196 50.3815 161.44 50.479 162.805 50.479C164.073 50.479 164.609 50.3327 166.145 49.5771C167.217 49.0408 168.485 48.1633 169.216 47.432C169.899 46.7495 170.8 45.6526 171.239 44.9945C171.8 44.0682 171.995 43.4832 171.995 42.6788C171.995 42.0694 171.849 41.3625 171.654 41.0944C171.337 40.6556 171.361 40.5337 171.702 40.1681C171.946 39.9244 172.287 39.7294 172.482 39.7294C172.677 39.7294 172.97 39.8512 173.116 40.0462C173.262 40.2169 173.457 40.6556 173.555 41.0213C173.628 41.3869 173.604 42.1182 173.457 42.6788C173.335 43.2151 173.262 43.6538 173.335 43.6538C173.409 43.6538 173.823 43.2882 174.262 42.8738C174.676 42.4594 175.602 41.655 176.261 41.1188C176.943 40.6069 177.918 39.9487 178.454 39.705C178.991 39.4612 179.771 39.2662 180.161 39.2662C180.575 39.2662 181.087 39.4612 181.331 39.6806C181.623 39.9569 181.769 40.4687 181.769 41.2163C181.769 42.0694 181.55 42.63 180.819 43.7757C180.307 44.5557 179.722 45.3845 179.502 45.6039C179.307 45.7989 178.771 46.6276 178.332 47.432C177.65 48.6508 177.577 48.9677 177.821 49.4308C178.04 49.894 178.259 49.9671 179.259 49.9183C180.039 49.8696 180.843 49.5771 181.843 48.9921C182.623 48.5289 183.744 47.7489 184.329 47.237C184.914 46.7251 185.401 46.1401 185.401 45.8964C185.401 45.6526 185.669 44.9213 185.986 44.2632C186.303 43.5807 187.059 42.5082 187.693 41.8744C188.302 41.2406 189.496 40.3875 190.35 39.9975C191.568 39.3881 192.178 39.2662 193.445 39.2662C194.981 39.2662 195.054 39.315 195.956 40.2412C196.517 40.8506 196.907 41.5331 197.004 42.1182C197.102 42.63 197.102 43.5319 197.028 44.1413C196.98 44.7263 196.638 45.7745 196.297 46.457C195.98 47.1151 195.322 48.0658 194.883 48.5533C194.42 49.0164 193.397 49.7964 192.592 50.2352C191.495 50.8446 190.74 51.064 189.545 51.1615C188.18 51.259 187.839 51.2102 187.01 50.6984C186.401 50.3327 185.889 49.7233 185.596 49.1383C185.377 48.5777 185.158 47.8952 185.158 47.6027C185.158 47.3102 185.06 47.0664 184.914 47.0664C184.792 47.0664 184.67 47.1395 184.67 47.237C184.67 47.3345 183.988 47.9195 183.159 48.5533C182.306 49.1627 181.014 49.9671 180.283 50.3327C179.551 50.6983 178.479 51.0152 177.942 51.0396C177.236 51.064 176.772 50.9421 176.407 50.6008C176.114 50.3083 175.895 49.8208 175.895 49.4308C175.895 49.0652 176.041 48.407 176.236 47.9683C176.407 47.5295 177.114 46.4326 177.821 45.5307C178.503 44.6288 179.259 43.5076 179.502 43.0444C179.844 42.3375 179.868 42.0938 179.624 41.5819C179.454 41.2406 179.015 40.8994 178.649 40.8019C178.235 40.7288 177.674 40.8019 177.236 41.0213C176.846 41.2163 175.919 41.9232 175.188 42.5813C174.481 43.2394 173.482 44.312 172.994 44.9701C172.507 45.6526 171.532 47.4077 170.825 48.8702C170.094 50.3571 168.704 53.4284 167.705 55.7197C166.705 57.9866 165.682 60.3267 165.413 60.8873C165.145 61.448 164.658 62.0817 164.317 62.3011C163.91 62.5449 163.569 62.5936 163.293 62.4474C163.049 62.3255 162.635 61.9598 161.879 61.1311L162.732 60.4973C163.195 60.1317 163.951 59.4492 164.438 58.9617C164.902 58.4741 165.413 57.816 165.584 57.4991C165.73 57.1823 166.608 55.4028 167.485 53.5259C168.387 51.6246 169.509 49.3333 169.947 48.407C170.41 47.4564 170.752 46.6764 170.727 46.6276C170.679 46.6033 169.996 47.1883 169.192 47.9439C168.387 48.6752 166.973 49.6746 166.023 50.1377C164.828 50.7227 163.853 51.0396 162.732 51.1371C161.855 51.2102 160.758 51.1859 160.295 51.1127C159.807 51.0396 159.1 50.6252 158.637 50.1621C158.174 49.7233 157.76 49.0652 157.613 48.0414L155.858 49.2358C154.883 49.894 153.396 50.6496 152.568 50.9421C151.714 51.2102 150.569 51.4296 150.008 51.4296C149.423 51.4296 148.546 51.3321 148.058 51.1859C147.546 51.064 146.864 50.6983 146.571 50.4058C146.254 50.1133 145.864 49.6014 145.718 49.3089C145.547 49.0164 145.425 48.3827 145.425 47.9195C145.425 47.2126 145.352 47.0908 145.011 47.1883C144.767 47.2858 143.914 47.4076 143.11 47.4808C141.769 47.6027 141.525 47.7245 140.307 48.8458C139.551 49.5527 138.308 50.4058 137.552 50.7715C136.797 51.1371 135.358 51.5759 134.408 51.7221C133.043 51.9415 132.238 51.9415 131.044 51.7465C129.801 51.5027 129.313 51.3077 128.801 50.7227C128.363 50.2596 128.119 49.6989 128.119 49.2602C128.119 48.7483 128.363 48.2852 128.923 47.7733C129.338 47.3589 130.093 46.9445 130.556 46.8714C131.02 46.7739 133.238 46.7251 139.575 46.8226L139.941 45.8476C140.136 45.287 140.38 44.2876 140.453 43.5807C140.55 42.5325 140.477 42.0938 140.014 41.2163C139.673 40.5581 139.112 39.9731 138.6 39.6806C137.967 39.3394 137.455 39.2662 136.65 39.3637L136.577 39.3725C135.978 39.4445 135.221 39.5353 134.847 39.5587C134.457 39.5831 134.091 39.4856 134.042 39.315C133.993 39.12 134.383 38.9006 135.017 38.7543C135.578 38.6081 136.65 38.1449 137.382 37.7306C138.113 37.3406 138.966 36.7555 139.234 36.4874C139.527 36.1949 140.038 35.5368 140.404 35.0005C140.843 34.318 141.062 33.7086 141.038 33.0505C141.038 32.4898 140.843 31.6854 140.624 31.2223C140.38 30.7592 139.795 30.101 139.332 29.7841C138.625 29.321 138.259 29.2479 137.26 29.3454C136.602 29.4185 135.773 29.6866 135.432 29.9304C135.09 30.1985 134.53 30.8323 134.188 31.3442C133.823 31.8804 132.726 34.2205 131.702 36.5849C130.703 38.925 129.46 41.9963 128.899 43.4101C128.363 44.7995 127.509 47.0908 126.998 48.4558C126.169 50.6496 125.949 50.9909 125.316 51.2102C124.926 51.3565 124.219 51.649 123.804 51.8196C123.366 52.0146 123 52.1121 123 52.0634C123 51.9903 123.561 50.8446 124.219 49.5039C124.901 48.1633 125.925 45.872 126.51 44.4338C127.095 42.9957 127.802 41.3138 128.07 40.7288C128.314 40.1194 128.753 39.12 129.045 38.535C129.313 37.9256 130.166 35.9999 130.922 34.2692C131.678 32.5142 132.506 30.6129 132.775 30.0523C133.091 29.3454 133.384 29.0285 133.725 29.0285C133.993 29.0285 134.213 29.1748 134.213 29.3941C134.213 29.5891 134.261 29.7598 134.335 29.7598C134.408 29.7598 134.822 29.5648 135.261 29.321Z" fill="white"></path>
<path d="M248.485 34.4399C248.461 33.6598 248.558 33.3673 248.924 33.1723C249.168 33.0505 249.46 32.9286 249.533 32.9286C249.607 32.9286 249.631 33.0992 249.582 33.343C249.533 33.5867 249.631 34.0986 249.777 34.513C249.923 34.903 250.216 35.3661 250.435 35.5368C250.679 35.683 251.288 35.8293 251.825 35.8293C252.385 35.8293 253.141 35.6343 253.604 35.3418C254.018 35.0736 254.847 34.3911 255.408 33.8305C255.969 33.2698 256.48 32.8798 256.554 33.0017C256.651 33.0992 256.164 33.7086 255.481 34.318C254.823 34.9274 253.726 35.683 253.043 35.9999C252.337 36.3412 251.362 36.5605 250.728 36.5605C249.923 36.5605 249.485 36.4143 249.07 36.0243C248.68 35.6343 248.51 35.1711 248.485 34.4399Z" fill="white"></path>
<path d="M228.254 40.1681C228.229 39.6562 228.351 39.4369 228.765 39.2906C229.082 39.1687 229.545 39.1444 229.814 39.2175C230.057 39.315 230.325 39.51 230.374 39.6806C230.447 39.8512 230.179 40.7775 229.789 41.7525C229.399 42.7275 228.668 44.3363 228.18 45.3601C227.669 46.3595 227.205 47.6027 227.132 48.1633C227.059 48.8458 227.132 49.2602 227.425 49.5527C227.644 49.7965 228.107 50.0402 228.497 50.1377C228.887 50.2108 229.594 50.089 230.252 49.8208C230.862 49.5771 231.934 48.8214 232.641 48.1633C233.397 47.4564 234.055 46.5789 234.201 46.0914C234.347 45.6039 234.908 44.2388 235.444 43.0444C235.981 41.8256 236.663 40.485 236.931 40.0462C237.224 39.6075 237.565 39.2662 237.687 39.2419C237.833 39.2419 238.15 39.4369 238.418 39.6806C238.857 40.0706 238.881 40.2169 238.638 40.8506C238.491 41.2406 238.053 41.9963 237.687 42.5569C237.321 43.0932 236.663 44.2388 236.224 45.1164C235.786 45.9695 235.322 47.237 235.225 47.9195C235.079 48.9677 235.127 49.1871 235.591 49.6746C235.859 49.9671 236.371 50.2352 236.712 50.2352C237.053 50.2352 237.736 50.0402 238.248 49.7964C238.735 49.5771 239.686 48.9921 240.344 48.5289C241.343 47.7977 241.733 47.237 243.001 44.7507C243.805 43.1175 244.585 41.265 244.731 40.6069C244.975 39.4856 245.073 39.3637 245.731 39.315C246.145 39.2662 246.608 39.3637 246.779 39.4856C246.998 39.6806 246.95 40.0706 246.486 41.265C246.17 42.0938 245.609 43.4588 245.243 44.2632C244.878 45.0432 244.366 46.1889 244.122 46.7495C243.854 47.3101 243.659 48.0902 243.659 48.4558C243.659 48.8214 243.756 49.2602 243.854 49.4065C243.951 49.5771 244.317 49.8208 244.707 49.9671C245.073 50.1133 245.658 50.1621 246.048 50.0646C246.413 49.9915 247.145 49.6746 247.681 49.3577C248.217 49.0408 249.07 48.3827 249.558 47.8708C250.094 47.3102 250.703 46.2864 251.069 45.3601C251.386 44.4826 252.044 42.9469 252.507 41.9475C252.995 40.9238 253.604 39.9 253.872 39.6319C254.36 39.1443 254.408 39.1443 254.993 39.5587C255.335 39.8025 255.603 40.0706 255.603 40.1681C255.603 40.2656 255.091 41.1675 254.457 42.1913C253.848 43.1907 253.019 44.6045 252.653 45.3601C252.288 46.0914 251.898 47.237 251.8 47.9195C251.654 48.9921 251.703 49.1871 252.215 49.699C252.702 50.1865 252.946 50.2596 253.653 50.1377C254.116 50.0402 254.993 49.7233 255.579 49.4308C256.139 49.1383 257.163 48.3583 257.821 47.7245C258.479 47.0908 259.015 46.4083 259.015 46.2132C259.015 45.9939 259.21 45.4332 259.43 44.9213C259.674 44.4095 260.234 43.5319 260.722 42.9225C261.185 42.3375 262.184 41.4113 262.916 40.875C263.647 40.3388 264.817 39.705 265.475 39.4856C266.377 39.1687 266.864 39.12 267.303 39.2906C267.644 39.4369 267.986 39.6562 268.083 39.8269C268.181 39.9731 268.278 40.4119 268.278 40.7775C268.278 41.2163 268.083 41.5819 267.742 41.8256C267.425 42.0207 267.035 42.1913 266.864 42.1913C266.694 42.1913 266.548 41.8988 266.548 41.5088C266.548 41.1431 266.426 40.7044 266.255 40.5337C266.084 40.3387 265.67 40.2169 265.304 40.2169C264.89 40.2169 264.256 40.5581 263.72 41.0456C263.208 41.5088 262.428 42.6057 262.014 43.4832C261.477 44.5557 261.161 45.6282 261.063 46.6276C260.966 47.7489 261.039 48.407 261.307 49.0652C261.551 49.6258 261.989 50.1377 262.501 50.3815C263.062 50.674 263.671 50.7471 264.744 50.6496C265.646 50.5765 266.718 50.284 267.547 49.8696C268.278 49.5039 269.375 48.7971 269.984 48.3096C270.594 47.822 271.374 47.0908 271.74 46.7008C272.13 46.2864 272.763 45.4088 273.202 44.7507C273.665 44.0194 274.226 42.6057 274.567 41.3381C274.884 40.1194 275.152 39.0956 275.176 39.0468C275.201 39.0225 275.445 39.0469 275.713 39.0956C275.981 39.1687 276.346 39.5344 276.517 39.9C276.785 40.5094 276.761 40.8019 276.298 42.1913C276.005 43.0444 275.566 44.117 275.298 44.5557C275.055 44.9945 274.86 45.4576 274.86 45.6039C274.86 45.7257 275.664 45.0189 276.639 44.0438C277.59 43.0444 279.003 41.7769 279.735 41.2163C280.466 40.6312 281.49 39.9731 282.002 39.705C282.489 39.4612 283.293 39.2662 283.757 39.2662C284.22 39.2662 284.659 39.3881 284.707 39.5587C284.756 39.7294 284.561 40.095 284.269 40.3875C283.854 40.8263 283.562 40.8994 282.782 40.7775C282.148 40.7044 281.538 40.7775 281.075 41.0213C280.685 41.2163 279.857 41.8013 279.247 42.2888C278.638 42.8007 278.126 43.3126 278.102 43.4344C278.053 43.5319 278.297 44.0438 278.613 44.5557C278.955 45.0676 279.515 46.2864 279.881 47.3101C280.247 48.3095 280.783 49.3821 281.051 49.6746C281.368 50.0158 281.855 50.2352 282.294 50.2352C282.708 50.2352 283.684 49.8452 284.488 49.3577C285.292 48.8702 286.243 48.1877 286.609 47.822C286.974 47.4808 287.34 46.847 287.413 46.457C287.486 46.0426 287.803 45.1407 288.144 44.4338C288.485 43.7269 289.339 42.5569 290.046 41.8013C290.728 41.07 291.874 40.1925 292.532 39.8512C293.361 39.4612 294.165 39.2662 295.091 39.2662C296.018 39.2662 296.676 39.4125 297.236 39.7537C297.651 40.0219 298.211 40.5581 298.455 40.9481C298.674 41.3625 299.016 41.6794 299.186 41.6794C299.333 41.6794 299.528 41.85 299.601 42.0694C299.674 42.2644 299.649 42.7275 299.576 43.0932C299.479 43.4588 299.113 44.1901 298.748 44.7507C298.358 45.287 297.724 46.0426 297.309 46.457C296.676 47.042 296.554 47.3589 296.529 48.2852C296.529 48.8702 296.676 49.504 296.846 49.6502C297.017 49.8208 297.431 50.0158 297.773 50.1133C298.114 50.2108 298.894 50.1133 299.601 49.894C300.283 49.6746 301.283 49.1139 302.891 47.7976L303.257 48.5289C303.452 48.9189 303.842 49.3577 304.11 49.5039C304.378 49.6258 304.841 49.7233 305.158 49.7233C305.451 49.7233 306.06 49.5039 306.499 49.2358C306.913 48.9677 307.328 48.7727 307.401 48.7727C307.474 48.7727 307.523 48.8702 307.523 49.0164C307.523 49.1383 307.011 49.5771 306.377 49.9915C305.548 50.5033 304.915 50.7227 304.183 50.7227C303.379 50.7227 302.989 50.5521 301.795 49.3577L300.21 50.1621C299.333 50.6008 298.089 51.0396 297.407 51.1371C296.286 51.2834 296.139 51.2346 295.433 50.5765C295.018 50.1865 294.652 49.7233 294.579 49.5527C294.506 49.3577 293.994 49.5039 292.897 50.0402C292.02 50.479 290.826 50.869 290.216 50.9177C289.266 51.0152 289.022 50.9421 288.364 50.3327C287.876 49.8696 287.535 49.2846 287.291 47.7976L286.145 48.7483C285.487 49.2602 284.342 50.0402 283.586 50.4546C282.538 50.9909 281.855 51.2102 280.953 51.2102C279.93 51.2102 279.662 51.0884 279.174 50.5277C278.882 50.1621 278.37 49.1383 278.077 48.2852C277.785 47.4077 277.321 46.3351 277.053 45.8964C276.785 45.4576 276.493 45.092 276.395 45.092C276.273 45.092 275.761 45.6039 275.225 46.2376C274.689 46.8714 273.86 48.1633 273.397 49.1139C272.568 50.7715 272.52 50.8446 271.52 50.9665C270.935 51.0152 270.472 51.0152 270.472 50.9665C270.472 50.8933 270.959 49.8696 271.569 48.6996C272.178 47.5295 272.666 46.5058 272.666 46.457C272.666 46.3839 272.154 46.8226 271.52 47.4564C270.862 48.0658 269.863 48.9189 269.253 49.3333C268.644 49.7477 267.62 50.3327 266.938 50.6252C266.279 50.9421 265.012 51.259 264.134 51.3565C263.111 51.454 262.209 51.4052 261.575 51.2102C261.039 51.0396 260.283 50.6009 259.917 50.2596C259.527 49.8696 259.137 49.1871 258.772 47.5539L257.382 48.6021C256.602 49.2114 255.432 49.9671 254.75 50.284C254.092 50.6252 252.995 50.9665 252.312 51.064C251.386 51.1859 250.947 51.1371 250.557 50.8446C250.118 50.5521 249.997 50.2352 249.997 48.2852L248.656 49.3821C247.925 49.9671 246.901 50.6496 246.413 50.8446C245.828 51.0883 244.975 51.2102 244.098 51.1615C243.001 51.0884 242.635 50.9665 242.221 50.479C241.928 50.1377 241.636 49.5039 241.587 49.0652C241.514 48.6264 241.416 48.2852 241.343 48.2852C241.27 48.2852 240.807 48.6021 240.319 48.9921C239.808 49.3821 238.735 50.0158 237.931 50.3815C237.126 50.7227 236.078 51.0884 235.615 51.1615C235.054 51.2346 234.542 51.1371 234.104 50.869C233.543 50.5277 233.421 50.284 233.299 48.2608L232.202 49.2602C231.593 49.8208 230.667 50.479 230.13 50.7227C229.594 50.9909 228.644 51.1859 228.01 51.1859C227.352 51.1859 226.523 51.0396 226.108 50.8446C225.67 50.6008 225.28 50.1621 225.133 49.6746C224.987 49.2358 224.963 48.5533 225.231 47.432L223.768 48.5533C222.988 49.1871 221.623 50.0402 220.746 50.4546C219.868 50.869 218.552 51.2834 217.821 51.3565C217.09 51.4296 215.944 51.3809 215.261 51.2346C214.384 51.0396 213.823 50.7227 213.263 50.1133C212.824 49.6258 212.458 49.0408 212.458 48.7727C212.458 48.4802 212.385 48.212 212.288 48.1633C212.166 48.0902 211.556 48.4558 210.874 48.9433C210.216 49.4552 209.119 50.1133 208.436 50.4302C207.778 50.7471 206.608 51.1127 205.877 51.259C205.146 51.4052 204.049 51.4296 203.439 51.3565C202.83 51.259 201.977 50.9665 201.562 50.6984C201.124 50.4302 200.563 49.8696 200.344 49.4308C200.124 48.9921 199.954 48.1145 199.954 47.432C199.954 46.7251 200.197 45.677 200.514 44.9945C200.807 44.312 201.44 43.2882 201.928 42.6788C202.415 42.0938 203.586 41.0944 204.512 40.485C205.852 39.6075 206.462 39.3637 207.437 39.2906C208.29 39.2175 208.778 39.315 208.973 39.5344C209.119 39.705 209.314 40.1437 209.411 40.485C209.484 40.8262 209.436 41.2406 209.241 41.4844C209.07 41.7038 208.68 41.9475 208.387 42.0207C207.949 42.1425 207.827 42.0694 207.827 41.7525C207.827 41.5088 207.656 41.07 207.461 40.7775C207.217 40.42 206.852 40.2412 206.364 40.2412C205.852 40.2412 205.365 40.485 204.707 41.1431C204.195 41.655 203.464 42.7275 203.074 43.5319C202.513 44.6532 202.342 45.4089 202.269 46.9445C202.172 48.7971 202.196 48.9189 202.854 49.699C203.488 50.4302 203.732 50.5521 205.024 50.6496C206.121 50.7227 206.827 50.6252 207.827 50.2596C208.558 49.9671 209.777 49.3089 210.508 48.7483C211.239 48.212 211.995 47.5295 212.141 47.2127C212.312 46.9202 212.458 46.5301 212.458 46.3351C212.458 46.1157 212.726 45.3845 213.068 44.6776C213.409 43.9707 214.14 42.8982 214.725 42.2644C215.286 41.655 216.529 40.7288 217.455 40.1925C218.601 39.5587 219.478 39.2662 220.136 39.2419C220.673 39.2419 221.233 39.3637 221.38 39.5587C221.526 39.7294 221.721 40.1681 221.818 40.5337C221.916 41.0213 221.843 41.3381 221.453 41.7038C221.185 41.9719 220.795 42.1913 220.6 42.1913C220.405 42.1913 220.258 41.9719 220.258 41.7038C220.258 41.4113 220.039 40.9969 219.771 40.7288C219.503 40.4362 219.015 40.2412 218.674 40.2412C218.308 40.2412 217.723 40.5825 217.138 41.1431C216.626 41.655 215.871 42.7763 215.432 43.6538C214.798 44.9701 214.652 45.5307 214.652 47.0664C214.628 48.5046 214.725 49.0164 215.091 49.5039C215.335 49.8208 215.822 50.2352 216.139 50.4058C216.505 50.6252 217.285 50.6984 218.186 50.6252C218.991 50.5765 220.088 50.3327 220.624 50.089C221.16 49.8452 222.257 49.1871 223.062 48.6264C223.866 48.0658 224.817 47.237 225.158 46.7739C225.523 46.3351 226.377 44.7995 227.059 43.4101C227.742 41.9475 228.278 40.5337 228.254 40.1681Z" fill="white"></path>
<path d="M308.571 39.8269C308.985 39.6075 309.79 39.3394 310.326 39.2419C310.862 39.12 311.788 39.0956 312.398 39.1443C313.007 39.2175 314.275 39.2419 315.201 39.2419C316.834 39.2419 316.883 39.2662 316.517 39.6806C316.298 39.9 315.835 40.6556 315.518 41.3381C315.177 41.9963 314.665 43.2394 314.372 44.0682C314.104 44.897 313.787 46.2133 313.714 46.9933C313.592 48.0414 313.641 48.602 313.958 49.1871C314.324 49.9183 314.421 49.9671 315.396 49.9183C316.127 49.8452 316.737 49.6015 317.492 48.9921C318.077 48.5289 318.882 47.6758 319.272 47.1151C319.637 46.5545 320.076 46.0914 320.198 46.0914C320.344 46.0914 320.442 46.2376 320.442 46.457C320.442 46.652 320.149 47.1639 319.784 47.6027C319.394 48.0414 318.833 48.6264 318.492 48.9433C318.151 49.2602 317.492 49.699 317.029 49.9671C316.566 50.2108 315.591 50.5277 314.909 50.674C313.909 50.8934 313.422 50.8934 312.715 50.6496C312.057 50.4302 311.764 50.1621 311.618 49.6258C311.496 49.2114 311.472 48.3583 311.545 47.7245C311.618 47.0908 311.837 46.1401 312.032 45.6039C312.349 44.7263 312.349 44.6288 312.032 44.6288C311.837 44.6288 311.52 44.6776 311.374 44.7264C311.203 44.7995 310.35 45.7257 309.473 46.8226C308.595 47.9195 307.864 48.6996 307.84 48.5533C307.791 48.3827 308.059 47.8952 308.449 47.432C308.815 46.9689 309.351 46.262 309.668 45.8476C309.96 45.4332 310.204 45.0432 310.204 44.9945C310.204 44.9213 309.985 44.8726 309.717 44.8726C309.448 44.8726 308.815 44.6532 308.327 44.4095C307.815 44.1413 307.255 43.6538 307.108 43.3126C306.938 42.9469 306.792 42.4107 306.792 42.1182C306.792 41.8257 307.011 41.265 307.279 40.8994C307.547 40.5338 308.132 40.0463 308.571 39.8269Z" fill="white"></path>
<path d="M139.429 67.4687C139.673 66.8837 140.136 66.3962 140.672 66.1037L141.55 65.6405L142.403 67.3712C142.89 68.3462 143.524 69.6625 143.841 70.345C144.158 71.0032 145.913 74.7326 151.032 85.7016L150.008 85.8479C149.423 85.9454 148.716 86.0185 148.424 86.0429C148.107 86.0429 147.863 85.9697 147.863 85.8722C147.863 85.7747 147.351 84.5316 146.693 83.1422C146.035 81.7284 145.352 80.2171 144.816 78.974L134.944 78.9983L133.896 81.6065C133.311 83.0447 132.677 84.5803 132.482 85.0191C132.287 85.4579 132.068 85.8235 131.97 85.8235C131.848 85.8235 131.897 85.5066 132.019 85.141C132.165 84.7753 132.385 84.2635 132.506 83.9953C132.628 83.7028 132.994 82.8253 133.335 82.0453C133.676 81.2409 134.53 79.1446 135.261 77.4139C135.992 75.6589 137.138 72.9288 137.82 71.32C138.478 69.687 139.21 67.9807 139.429 67.4688L139.429 67.4687Z" fill="white"></path>
<path d="M155.956 67.0056C156.516 66.7131 157.711 66.2743 158.564 66.0549C159.441 65.8112 160.88 65.6162 161.733 65.6162C162.61 65.5918 163.927 65.7624 164.658 65.9818C165.413 66.2012 166.388 66.5912 166.852 66.8593C167.339 67.1275 167.9 67.5662 168.143 67.8587C168.363 68.1512 168.558 68.7606 168.558 69.175C168.558 69.76 168.387 70.1013 167.9 70.4669C167.534 70.735 167.12 70.9788 166.973 70.9788C166.852 70.9788 166.535 70.735 166.315 70.4669C166.072 70.1988 165.95 69.8331 166.047 69.6625C166.12 69.5163 166.413 69.1506 166.657 68.8825C166.9 68.6144 167.047 68.2243 166.998 68.0293C166.925 67.8343 166.388 67.3712 165.828 66.9812C165.267 66.6156 164.195 66.2012 163.439 66.0549C162.708 65.9087 161.611 65.8599 161.001 65.9331C160.416 66.0306 159.539 66.2012 159.051 66.3718C158.588 66.5181 157.76 66.9812 157.223 67.42C156.687 67.8587 155.956 68.7362 155.59 69.3944C155.249 70.0525 154.786 71.2957 154.566 72.1732C154.371 73.0507 154.201 74.4645 154.176 75.342C154.176 76.2195 154.347 77.5846 154.566 78.3889C154.786 79.1933 155.249 80.3877 155.59 81.0459C155.956 81.6796 156.76 82.6791 157.345 83.2153C157.955 83.776 159.051 84.4828 159.783 84.8241C160.782 85.2629 161.538 85.4091 162.708 85.4091C163.78 85.3847 164.682 85.2141 165.462 84.8729C166.096 84.5803 166.998 83.9466 167.461 83.4347C167.924 82.9472 168.436 82.3378 168.607 82.094C168.924 81.6796 168.948 81.6797 169.289 82.2647C169.63 82.8253 169.63 82.9228 169.167 83.4103C168.899 83.7028 167.875 84.3366 166.852 84.7997C165.316 85.5066 164.682 85.6773 162.83 85.7748C161.635 85.8235 160.075 85.7504 159.368 85.6041C158.661 85.4579 157.516 85.0679 156.809 84.751C156.102 84.4097 155.054 83.6785 154.469 83.0934C153.908 82.5084 153.104 81.3871 152.714 80.5827C152.324 79.7784 151.861 78.2914 151.714 77.292C151.495 75.8783 151.495 75.0495 151.714 73.6357C151.885 72.6363 152.251 71.2469 152.568 70.5888C152.86 69.9063 153.518 68.9556 154.006 68.4437C154.518 67.9562 155.371 67.2981 155.956 67.0056Z" fill="white"></path>
<path d="M174.725 67.1275C175.212 66.8106 176.431 66.3475 177.406 66.1037C178.381 65.8356 179.941 65.6162 180.868 65.6162C181.818 65.5918 183.086 65.7381 183.671 65.9331C184.28 66.1037 185.231 66.4937 185.816 66.7862C186.376 67.0543 187.083 67.5906 187.351 67.9562C187.62 68.3462 187.839 68.785 187.839 68.9312C187.839 69.1019 187.668 69.565 187.449 69.9794C187.23 70.4181 186.84 70.7594 186.474 70.8325C186.157 70.9057 185.694 70.8082 185.499 70.6375C185.279 70.4913 185.133 70.1013 185.133 69.7844C185.133 69.4919 185.353 69.1262 185.621 69.0044C185.889 68.8581 186.108 68.5412 186.108 68.2731C186.108 68.005 185.767 67.5175 185.328 67.2006C184.889 66.8837 184.158 66.5181 183.671 66.3718C183.208 66.2256 182.33 66.0306 181.745 65.9574C181.136 65.8599 180.039 65.9331 179.307 66.0793C178.552 66.2499 177.674 66.5181 177.333 66.6887C177.016 66.8593 176.358 67.3712 175.895 67.8344C175.456 68.2731 174.725 69.3456 174.31 70.2231C173.652 71.6369 173.555 72.1001 173.482 74.6107C173.409 76.6827 173.482 77.7796 173.774 78.8033C173.994 79.5834 174.53 80.7778 174.969 81.4846C175.407 82.1915 176.261 83.1422 176.846 83.6297C177.455 84.1172 178.552 84.7022 179.283 84.9704C180.039 85.2141 181.233 85.4335 181.964 85.4335C182.818 85.4091 183.768 85.2141 184.524 84.8729C185.206 84.556 186.23 83.8003 186.791 83.1666C187.376 82.5572 187.839 81.9234 187.815 81.8015C187.815 81.6553 187.985 81.7284 188.18 81.9234C188.4 82.1184 188.57 82.5084 188.57 82.7765C188.57 83.1178 188.083 83.5566 187.035 84.1903C186.206 84.6779 184.914 85.2872 184.158 85.5066C183.159 85.7991 182.208 85.8479 180.258 85.7504C177.894 85.6285 177.577 85.5554 175.895 84.7022C174.481 83.971 173.799 83.4103 172.897 82.289C172.19 81.3871 171.556 80.2415 171.264 79.2908C170.898 78.2183 170.752 77.097 170.752 75.5126C170.752 73.977 170.898 72.7826 171.239 71.6857C171.556 70.5888 172.019 69.7356 172.75 68.9069C173.335 68.2487 174.213 67.4443 174.725 67.1275Z" fill="white"></path>
<path d="M197.54 69.7356C198.564 67.2981 198.979 66.5668 199.588 66.1524C200.027 65.8599 200.441 65.6162 200.49 65.5918C200.563 65.5918 201.124 66.6399 201.757 67.9562C202.391 69.2725 203.415 71.4419 204.049 72.7826C204.682 74.1232 205.682 76.2683 206.267 77.5358C206.876 78.8033 207.949 81.1434 208.68 82.7034C209.411 84.2878 209.972 85.6285 209.948 85.6772C209.899 85.726 209.241 85.8235 207.047 85.9454L206.023 83.7272C205.462 82.5084 204.756 80.9484 203.902 78.9983H198.905C193.933 78.9983 193.908 78.9983 193.762 79.5346C193.689 79.8515 193.08 81.3871 192.422 82.9472C191.763 84.5316 191.13 85.8235 190.983 85.8235C190.837 85.8235 190.837 85.6772 190.983 85.3847C191.105 85.1654 191.715 83.7028 192.348 82.1672C192.982 80.6315 194.128 77.8771 194.883 76.0733C195.663 74.2695 196.858 71.4176 197.54 69.7356Z" fill="white"></path>
<path d="M235.834 86.0672V75.8295V65.5918H252.653L252.678 66.8593C252.678 67.7856 252.532 68.3462 252.19 68.8094C251.8 69.3456 251.508 69.4675 250.898 69.4188C250.216 69.37 250.094 69.2725 250.045 68.6875C249.997 68.1756 250.167 67.9075 250.777 67.4931L250.777 67.4929C251.216 67.2005 251.581 66.9568 251.605 66.9568C251.605 66.9325 251.703 66.6887 251.922 65.8355H238.516V75.342H239.125C239.466 75.342 241.026 75.0008 242.611 74.5864C245.097 73.9282 245.78 73.8307 247.778 73.9282C249.68 74.0014 250.338 74.1476 251.313 74.6595C251.995 75.0008 252.775 75.537 253.068 75.8539C253.36 76.1708 253.799 76.8777 254.018 77.4139C254.238 77.9502 254.433 78.9983 254.433 79.7296C254.433 80.4609 254.311 81.4603 254.165 81.9234C254.018 82.3865 253.482 83.1909 252.97 83.6784C252.41 84.2391 251.483 84.7997 250.582 85.0922C249.338 85.531 248.266 85.6529 243.147 85.8235C239.881 85.9454 236.882 86.0429 235.834 86.0672Z" fill="white"></path>
<path d="M293.312 67.4687C293.97 66.8106 294.677 66.4206 295.798 66.0793C297.163 65.6649 297.919 65.6162 300.917 65.7137C302.867 65.7624 305.28 65.8843 308.059 66.1281L307.864 85.9454L305.305 86.0672V75.7076L302.94 75.8539C301.624 75.9514 300.113 76.1952 299.576 76.4145C299.04 76.6339 298.236 77.097 297.748 77.4139C297.285 77.7308 296.505 78.5352 296.018 79.169C295.554 79.8027 294.945 80.8265 294.701 81.4359C294.482 82.0453 294.092 83.2884 293.872 84.2391C293.507 85.7504 293.409 85.9454 292.946 85.8722C292.629 85.8479 292.264 85.8235 292.093 85.8235C291.849 85.8235 291.825 85.5066 291.996 84.556C292.093 83.8491 292.483 82.5572 292.824 81.6796C293.312 80.4852 293.848 79.6809 295.067 78.4865C295.944 77.5846 297.09 76.6583 298.601 75.9758L297.139 75.8295C296.334 75.7564 295.189 75.4395 294.579 75.1714C293.97 74.8789 293.19 74.2207 292.824 73.7089C292.361 73.0751 292.093 72.3438 291.996 71.4419C291.898 70.6619 291.947 69.7356 292.117 69.2481C292.264 68.785 292.8 67.9806 293.312 67.4687Z" fill="white"></path>
<path d="M211.434 75.9514C211.459 70.4425 211.459 65.9331 211.434 65.9331C211.41 65.9087 211.971 65.8843 212.653 65.8599C213.653 65.8356 213.945 65.9331 214.067 66.2499C214.14 66.4937 214.359 66.8593 214.53 67.0543C214.676 67.2493 215.091 67.9075 215.432 68.5169C215.773 69.1263 216.968 71.1982 218.089 73.1482C219.21 75.0983 220.258 76.9752 220.429 77.292C220.6 77.6333 220.941 78.1696 221.623 79.1202L223.598 75.7076C224.67 73.8307 226.352 70.8569 227.327 69.1263C228.302 67.3712 229.107 65.9331 229.131 65.9087C229.131 65.9087 229.716 65.9574 231.715 66.2012L231.69 85.9454H229.034L228.887 67.2737L226.596 71.2469C225.328 73.4407 223.647 76.4145 222.818 77.8527C221.697 79.8515 221.282 80.4121 221.087 80.144C220.965 79.949 219.308 77.1458 214.018 67.9562L213.774 85.9454H211.41L211.434 75.9514Z" fill="white"></path>
<path d="M262.282 66.6887C262.867 66.3231 263.671 66.1768 266.06 66.0549C267.742 65.9818 269.643 65.9087 271.423 65.8355V86.0672H268.741L268.619 66.4449L266.791 66.3718C265.694 66.3231 264.5 66.4449 263.744 66.6643C263.086 66.8837 262.111 67.3956 261.575 67.8344C261.063 68.2731 260.429 69.0531 260.185 69.5406C259.942 70.0525 259.674 70.8813 259.6 71.3688C259.527 71.8807 259.381 74.6595 259.284 77.5358C259.113 82.0697 259.015 82.8984 258.577 83.7516C258.309 84.2878 257.797 84.9216 257.455 85.141C257.09 85.3847 256.48 85.6529 256.066 85.7504C255.554 85.8966 255.335 85.8479 255.335 85.6285C255.335 85.4822 255.53 85.336 255.774 85.336C255.993 85.336 256.529 85.141 256.919 84.8972C257.334 84.6535 257.894 83.9466 258.211 83.3128C258.674 82.3378 258.772 81.7284 258.772 79.4127C258.796 77.9258 258.869 75.3176 258.967 73.6357C259.113 71.32 259.284 70.3206 259.674 69.4919C259.942 68.8825 260.502 68.1025 260.868 67.7612C261.258 67.42 261.892 66.9325 262.282 66.6887Z" fill="white"></path>
<path d="M275.566 66.0793L276.127 65.9818C276.42 65.9331 277.053 65.9331 277.516 65.9818C278.004 66.0306 280.758 66.0793 288.973 66.0793L288.997 67.3468C288.997 68.2731 288.851 68.8337 288.51 69.2969C288.193 69.7356 287.779 69.9794 287.389 69.9794C286.999 69.9794 286.682 69.7844 286.535 69.4188C286.292 68.9556 286.365 68.7606 287.12 68.0293C287.608 67.5662 287.998 66.9812 287.998 66.7375C287.998 66.3474 287.632 66.3231 278.126 66.4449V75.7076L285.195 75.927L278.126 76.1952V84.9704L283.074 85.0191C287.315 85.0922 287.998 85.0435 287.998 84.7266C287.998 84.5316 287.632 83.9953 287.145 83.5566C286.682 83.1422 286.292 82.6547 286.292 82.5328C286.292 82.3865 286.487 82.094 286.73 81.8503C286.999 81.5578 287.34 81.4603 287.705 81.5334C287.998 81.6065 288.412 81.9965 288.607 82.4109C288.851 82.8741 288.949 83.6784 288.851 85.9454L282.757 86.0185C279.418 86.0429 276.42 86.0185 275.566 85.8235V66.0793Z" fill="white"></path>
<path d="M152.324 103.861C152.299 98.4256 152.324 93.843 152.373 93.6724C152.446 93.5018 152.933 93.3799 154.908 93.3799V98.6206C154.908 101.497 155.005 103.861 155.103 103.861C155.2 103.861 155.566 103.618 155.931 103.301C156.297 103.008 157.443 102.058 158.491 101.18C159.539 100.303 160.685 99.3519 161.001 99.0594C161.343 98.7669 162.927 97.4263 164.536 96.0856C166.145 94.7449 167.583 93.6237 167.705 93.6237C167.851 93.6237 167.583 93.9893 167.095 94.4281C166.632 94.8668 164.609 96.5975 162.635 98.255C160.636 99.9369 158.783 101.473 158.54 101.668C158.101 102.009 158.15 102.058 159.588 102.472C160.441 102.716 161.684 103.276 162.342 103.691C163 104.13 163.975 105.007 164.487 105.69C165.023 106.348 165.706 107.396 165.998 108.005C166.315 108.615 166.73 109.638 166.925 110.321C167.144 110.979 167.363 112.052 167.583 113.855H165.998L165.584 111.857C165.34 110.735 164.731 108.956 164.195 107.883C163.683 106.786 162.781 105.446 162.196 104.861C161.611 104.276 160.709 103.593 160.221 103.35C159.71 103.081 158.881 102.813 158.393 102.716C157.565 102.569 157.369 102.667 154.908 104.715V113.855L152.348 113.733L152.324 103.861Z" fill="white"></path>
<path d="M170.752 113.855V103.618L170.727 93.4043L176.285 93.5505C180.868 93.648 182.086 93.7699 183.183 94.1356C183.939 94.4037 184.914 94.9643 185.353 95.4031C185.816 95.8175 186.328 96.5487 186.523 96.9631C186.693 97.4019 186.84 98.2063 186.84 98.7425C186.84 99.2788 186.693 100.083 186.523 100.498C186.352 100.936 185.889 101.619 185.499 101.984C185.109 102.374 184.28 102.935 183.671 103.203C182.72 103.666 182.013 103.74 173.555 103.983L173.433 113.855H170.752Z" fill="white"></path>
<path d="M264.622 113.831V103.593V93.3555H267.059V103.35H267.718C268.083 103.35 269.229 103.13 270.228 102.838C271.228 102.569 272.446 102.253 272.91 102.131C273.373 102.009 274.689 101.911 275.835 101.911C277.053 101.887 278.443 102.058 279.247 102.277C280.173 102.569 280.905 102.984 281.587 103.691C282.172 104.276 282.708 105.105 282.879 105.665C283.025 106.201 283.147 107.225 283.147 107.932C283.147 108.639 282.977 109.614 282.757 110.126C282.562 110.638 282.148 111.296 281.855 111.613C281.563 111.93 280.929 112.368 280.466 112.612C280.003 112.856 278.76 113.246 277.712 113.441C276.298 113.733 274.421 113.831 264.622 113.831Z" fill="white"></path>
<path d="M283.83 103.764C283.805 98.2307 283.879 93.6237 284 93.5262C284.122 93.4287 284.756 93.3799 286.633 93.4774L286.609 103.228C286.584 108.59 286.56 113.173 286.56 113.417C286.56 113.758 286.34 113.831 283.879 113.831L283.83 103.764Z" fill="white"></path>
<path d="M210.557 94.4281C211.459 94.1599 212.434 93.8674 212.751 93.7943C213.043 93.7212 214.286 93.6724 215.505 93.6968C217.309 93.7456 217.943 93.8674 219.161 94.4281C219.966 94.7937 220.868 95.3299 221.185 95.6225C221.542 95.98 221.721 96.4431 221.721 97.0119C221.721 97.5238 221.55 98.06 221.307 98.3038C221.038 98.5719 220.575 98.7181 220.136 98.6694C219.527 98.6206 219.381 98.4744 219.332 97.9381C219.308 97.475 219.43 97.1581 219.771 96.9631C220.039 96.7925 220.258 96.5 220.258 96.2806C220.258 96.0856 220.015 95.6956 219.722 95.3787C219.405 95.0862 218.747 94.6962 218.235 94.4768C217.748 94.2574 216.7 94.0381 215.92 93.9406C214.969 93.843 214.018 93.9162 212.946 94.2087C211.946 94.4524 210.996 94.9156 210.386 95.4275C209.85 95.8662 209.119 96.7681 208.753 97.4019C208.363 98.1088 207.949 99.4982 207.705 100.79C207.461 102.204 207.364 103.52 207.461 104.446C207.559 105.251 207.851 106.567 208.119 107.371C208.387 108.176 208.972 109.346 209.411 109.931C209.85 110.54 210.679 111.369 211.264 111.783C211.849 112.198 212.824 112.734 213.433 112.978C214.043 113.222 215.066 113.417 215.749 113.392C216.407 113.392 217.455 113.27 218.065 113.1C218.674 112.929 219.576 112.466 220.112 112.052C220.624 111.613 221.307 110.906 222.16 109.565L222.452 110.175C222.598 110.516 222.672 110.93 222.598 111.101C222.501 111.272 221.989 111.71 221.404 112.1C220.843 112.49 219.6 113.051 218.674 113.319C217.601 113.66 216.31 113.855 215.261 113.855C214.311 113.855 212.897 113.66 212.093 113.465C211.288 113.246 210.143 112.783 209.533 112.442C208.924 112.076 207.997 111.345 207.486 110.808C206.949 110.272 206.169 109.102 205.779 108.225C205.072 106.738 205.024 106.494 205.024 103.593C205.024 101.18 205.121 100.278 205.511 99.2057C205.852 98.255 206.413 97.4506 207.461 96.4025C208.704 95.1349 209.168 94.8424 210.557 94.4281Z" fill="white"></path>
<path d="M229.034 94.6474C229.497 94.4524 230.423 94.1356 231.105 93.9406C231.91 93.7212 233.202 93.6481 235.006 93.6968C237.077 93.7699 238.004 93.9162 239.149 94.3549C240.198 94.7693 241.026 95.3543 242.099 96.4025C243.147 97.4506 243.732 98.2794 244.073 99.2057C244.366 99.9613 244.658 101.497 244.731 102.618C244.853 104.105 244.78 105.178 244.512 106.348C244.317 107.25 243.854 108.468 243.513 109.029C243.147 109.59 242.586 110.37 242.221 110.76C241.879 111.15 241.148 111.759 240.612 112.125C240.076 112.49 238.857 113.027 237.931 113.319C236.907 113.636 235.542 113.831 234.518 113.831C233.567 113.831 232.154 113.66 231.349 113.465C230.545 113.246 229.35 112.783 228.692 112.417C228.059 112.052 227.157 111.369 226.694 110.857C226.23 110.345 225.548 109.248 225.133 108.42C224.743 107.566 224.305 106.08 224.134 105.056C223.939 103.715 223.939 102.813 224.134 101.643C224.28 100.79 224.719 99.4007 225.109 98.5963C225.523 97.7188 226.279 96.7194 226.986 96.0856C227.644 95.4762 228.57 94.8424 229.034 94.6474Z" fill="white"></path>
<path d="M245.146 95.7687C245.146 95.4031 245.268 94.8181 245.39 94.4768L245.609 93.843L262.062 93.9649L262.306 95.0131C262.526 95.915 262.477 96.1344 262.038 96.7194C261.746 97.085 261.258 97.4262 260.941 97.4506C260.624 97.4994 260.21 97.3775 260.039 97.2069C259.869 97.0362 259.722 96.7681 259.722 96.5975C259.747 96.4269 260.21 95.8418 261.819 94.3549L255.115 94.3306V113.831H252.434V94.3306H245.731L246.755 95.2568C247.315 95.7687 247.778 96.3294 247.803 96.5244C247.803 96.7437 247.681 97.0362 247.51 97.2069C247.34 97.3775 246.998 97.4994 246.706 97.4994C246.438 97.4994 245.975 97.2556 245.658 96.9631C245.341 96.6219 245.121 96.1587 245.146 95.7687Z" fill="white"></path>
<path d="M190.13 103.008C193.031 96.1343 193.518 95.1349 194.225 94.6474C194.664 94.3549 195.078 94.0868 195.152 94.0868C195.225 94.0868 195.468 94.4524 195.688 94.8912C195.907 95.33 198.028 99.7907 200.368 104.836C202.708 109.858 204.561 114.05 204.512 114.148C204.463 114.245 203.805 114.343 203.074 114.343C202.05 114.343 201.66 114.221 201.465 113.904C201.319 113.66 200.636 112.173 198.613 107.64L188.57 107.518L187.181 110.979C186.401 112.88 185.743 114.318 185.718 114.148C185.669 113.977 185.913 113.148 186.23 112.32C186.571 111.491 188.302 107.298 190.13 103.008Z" fill="white"></path>
<path d="M309.643 40.4606C310.033 40.095 310.497 39.7537 310.692 39.6806C310.887 39.6075 311.74 39.5343 312.568 39.5343C313.885 39.51 314.104 39.5831 314.104 39.9244C314.104 40.1681 313.934 40.8019 313.714 41.3381C313.495 41.8744 313.105 42.7763 312.398 44.3851L311.252 44.2876C310.375 44.2144 309.936 44.0194 309.546 43.5563C309.18 43.1419 308.985 42.6057 308.985 41.9963C308.985 41.3138 309.132 40.9238 309.643 40.4606Z" fill="#01000C"></path>
<path d="M188.887 42.4594C189.375 41.6306 190.081 40.875 190.764 40.4606C191.373 40.0706 192.178 39.7537 192.592 39.7537C193.031 39.7537 193.518 39.9487 193.86 40.29C194.152 40.6069 194.493 41.1431 194.64 41.5088C194.786 41.8988 194.908 42.8007 194.908 43.5319C194.908 44.2632 194.737 45.3357 194.493 45.8964C194.274 46.4814 193.713 47.5295 193.226 48.2608C192.738 48.9677 191.983 49.7721 191.568 50.0158C191.056 50.3083 190.398 50.4546 189.74 50.4058C188.863 50.3571 188.619 50.2352 188.156 49.5039C187.839 49.0408 187.522 48.1633 187.449 47.5539C187.351 46.847 187.449 45.9695 187.693 45.1163C187.912 44.3851 188.448 43.1907 188.887 42.4594Z" fill="#01000C"></path>
<path d="M291.606 41.7038C291.996 41.2406 292.824 40.6069 293.409 40.29C294.238 39.8512 294.726 39.7537 295.579 39.8756C296.188 39.9487 296.944 40.1925 297.261 40.4362C297.578 40.6556 297.968 41.0213 298.114 41.265C298.333 41.5819 298.211 41.8256 297.456 42.6057C296.944 43.1175 296.237 44.1413 295.847 44.8726C295.481 45.6039 295.042 46.7495 294.872 47.432C294.628 48.3339 294.36 48.7727 293.775 49.1627C293.361 49.4552 292.581 49.7964 292.044 49.9427C291.508 50.089 290.85 50.1133 290.582 50.0158C290.314 49.8939 289.948 49.4552 289.753 48.9921C289.509 48.4558 289.436 47.6758 289.534 46.7008C289.607 45.8964 289.924 44.6288 290.265 43.8976C290.582 43.1663 291.191 42.1669 291.606 41.7038Z" fill="#01000C"></path>
<path d="M161.099 42.9225C161.391 42.3132 162.05 41.4113 162.537 40.8994C163.268 40.1194 163.561 39.9731 164.243 40.0462C164.926 40.1194 165.048 40.2169 165.097 40.7775C165.145 41.1675 164.975 41.7525 164.731 42.0938C164.512 42.435 163.634 43.0444 162.781 43.4344C161.952 43.8244 161.123 44.1169 160.928 44.0682C160.66 44.0438 160.685 43.8001 161.099 42.9225Z" fill="#01000C"></path>
<path d="M297.553 44.7507C297.821 44.0682 298.163 43.3857 298.309 43.2151C298.455 43.0688 298.65 42.9225 298.748 42.9225C298.869 42.9225 298.894 43.2151 298.821 43.5807C298.748 43.9707 298.382 44.6776 297.992 45.1651C297.602 45.677 297.236 46.067 297.163 46.0182C297.09 45.9939 297.261 45.4088 297.553 44.7507Z" fill="#01000C"></path>
<path d="M129.508 48.2364C129.752 47.9927 130.288 47.7001 130.678 47.5783C131.068 47.4564 132.116 47.3589 132.994 47.3589C133.871 47.3589 135.553 47.432 138.942 47.6758L137.967 48.6508C137.43 49.1871 136.455 49.8939 135.773 50.2352C134.846 50.6983 134.213 50.8446 132.848 50.8446C131.385 50.8446 130.971 50.7471 130.118 50.1621C129.557 49.7964 129.094 49.3089 129.094 49.0652C129.069 48.8458 129.264 48.4558 129.508 48.2364Z" fill="#01000C"></path>
<path d="M295.701 67.4687C296.164 66.9812 296.919 66.4693 297.358 66.3474C297.773 66.2256 299.235 66.1037 300.576 66.1037C301.916 66.0793 303.525 66.1524 305.329 66.4449V75.5858L301.624 75.5614C299.406 75.5614 297.553 75.4395 297.066 75.2689C296.603 75.0982 295.92 74.5864 295.53 74.1232C294.969 73.4407 294.799 72.9532 294.677 71.6857C294.604 70.8082 294.604 69.7113 294.677 69.2481C294.774 68.7606 295.189 68.005 295.701 67.4687Z" fill="#01000C"></path>
<path d="M196.443 73.2701C197.565 70.5888 198.564 68.1756 198.662 67.9075C198.808 67.5175 199.003 67.81 199.685 69.37C200.173 70.4425 201.245 72.9532 202.123 74.9764C202.976 76.9752 203.659 78.6327 203.634 78.6571C203.585 78.6571 201.514 78.6327 199.003 78.584C196.468 78.5352 194.42 78.4377 194.42 78.3158C194.42 78.2183 195.322 75.9514 196.443 73.2701Z" fill="#01000C"></path>
<path d="M137.991 71.8076C138.625 70.345 139.258 68.8094 139.405 68.4437C139.624 67.8831 139.722 67.81 140.038 68.0537C140.258 68.2 140.404 68.4681 140.38 68.6144C140.331 68.7606 140.697 69.7113 141.135 70.7107C141.599 71.71 142.403 73.587 142.964 74.8545C143.524 76.122 144.085 77.3652 144.207 77.5846C144.353 77.8283 144.45 78.2183 144.45 78.4377C144.45 78.8033 144.329 78.8521 143.549 78.7058C143.037 78.6083 140.94 78.5108 135.188 78.5108L136.017 76.4877C136.48 75.3908 137.357 73.2701 137.991 71.8076Z" fill="#01000C"></path>
<path d="M241.782 75.2201C242.952 74.8789 244.488 74.5132 245.195 74.3914C245.877 74.2695 246.706 74.172 247.023 74.1476C247.315 74.1476 247.925 74.2695 248.363 74.4401C248.778 74.6351 249.558 75.147 250.094 75.6101C250.606 76.0733 251.191 76.8289 251.386 77.292C251.557 77.7552 251.776 78.6815 251.873 79.364C251.971 80.3634 251.898 80.8265 251.362 81.9721C250.874 83.069 250.46 83.5566 249.582 84.1172C248.924 84.5316 248.022 84.9947 247.559 85.141C247.047 85.3116 245.073 85.4335 238.662 85.4579L238.54 75.8295H239.101C239.393 75.8295 240.588 75.5614 241.782 75.2201Z" fill="#01000C"></path>
<path d="M173.457 103.618L173.482 98.7181L173.506 93.8187L177.236 93.8918L177.256 93.8923C180.941 93.9893 180.991 93.9906 182.038 94.7206C182.598 95.1349 183.329 95.915 183.622 96.4268C184.036 97.1337 184.183 97.7919 184.183 98.8644C184.183 99.7419 183.988 100.717 183.744 101.302C183.5 101.838 182.915 102.545 182.452 102.886C181.648 103.471 181.452 103.496 173.457 103.618Z" fill="#01000C"></path>
<path d="M230.569 94.6962C230.935 94.5012 231.642 94.2574 232.154 94.1112C232.641 93.9893 233.494 93.9405 234.031 93.9893C234.567 94.038 235.566 94.2574 236.224 94.4524C236.907 94.6474 237.931 95.1593 238.54 95.6224C239.125 96.0612 239.978 96.9144 240.441 97.5237C240.88 98.1331 241.465 99.3275 241.733 100.205C242.001 101.083 242.196 102.496 242.196 103.374C242.196 104.251 242.074 105.665 241.928 106.543C241.782 107.42 241.343 108.785 240.978 109.59C240.612 110.394 239.856 111.467 239.296 111.954C238.759 112.466 237.882 112.978 237.394 113.124C236.882 113.246 235.834 113.368 235.079 113.368C234.201 113.368 233.177 113.173 232.397 112.856C231.69 112.563 230.667 112.003 230.155 111.564C229.619 111.15 228.765 110.15 228.254 109.346C227.669 108.444 227.181 107.25 226.962 106.226C226.767 105.324 226.596 104.032 226.596 103.374C226.596 102.691 226.767 101.424 226.937 100.498C227.132 99.5957 227.474 98.45 227.669 97.9381C227.888 97.4506 228.473 96.5731 228.985 96.0368C229.472 95.4762 230.179 94.8668 230.569 94.6962Z" fill="#01000C"></path>
<path d="M189.984 104.276C190.569 102.911 191.544 100.546 192.153 99.035C192.763 97.5481 193.348 96.305 193.421 96.305C193.494 96.2806 194.201 97.7431 195.005 99.5225C195.785 101.302 196.833 103.691 198.272 106.908L193.713 106.957C191.227 107.006 189.131 106.957 189.058 106.908C188.985 106.835 189.399 105.641 189.984 104.276Z" fill="#01000C"></path>
<path d="M267.498 103.861C267.718 103.861 269.399 103.471 271.203 103.008C273.007 102.569 274.908 102.179 275.42 102.155C275.908 102.155 276.736 102.326 277.248 102.521C277.736 102.74 278.467 103.203 278.857 103.569C279.247 103.934 279.759 104.666 280.003 105.202C280.247 105.738 280.466 106.713 280.466 107.396C280.466 108.054 280.393 109.005 280.295 109.468C280.198 109.955 279.686 110.76 279.125 111.369C278.467 112.076 277.711 112.563 276.81 112.856C275.761 113.222 274.591 113.343 267.181 113.49L267.133 108.663C267.059 104.227 267.084 103.861 267.498 103.861Z" fill="#01000C"></path>
</svg>
