<svg width="56" height="57" viewBox="0 0 56 57" fill="none" xmlns="http://www.w3.org/2000/svg">
<rect width="56" height="56" transform="translate(0 0.342773)" fill="#26252F"></rect>
<path d="M23.8585 18.4127C22.7945 18.4629 22.0679 18.6327 21.4327 18.8823C20.7752 19.1385 20.218 19.4823 19.6636 20.0387C19.1092 20.5951 18.7678 21.1527 18.5134 21.8111C18.2672 22.4477 18.1004 23.1749 18.0534 24.2395C18.0064 25.3041 17.996 25.6463 18.0012 28.3619C18.0064 31.0776 18.0184 31.418 18.07 32.4848C18.1208 33.5486 18.29 34.275 18.5396 34.9104C18.7962 35.5678 19.1396 36.1248 19.6962 36.6794C20.2528 37.234 20.81 37.5746 21.4701 37.8294C22.1061 38.0752 22.8335 38.2428 23.8979 38.2894C24.9623 38.336 25.3049 38.3468 28.0197 38.3416C30.7345 38.3364 31.0763 38.3244 32.143 38.2738C33.2096 38.2232 33.9322 38.0528 34.5678 37.8044C35.2252 37.5472 35.7826 37.2044 36.3368 36.6476C36.891 36.0908 37.2322 35.5328 37.4864 34.874C37.7328 34.238 37.9002 33.5106 37.9464 32.447C37.993 31.3796 38.004 31.0388 37.9988 28.3235C37.9936 25.6083 37.9814 25.2679 37.9308 24.2015C37.8802 23.1351 37.7108 22.4109 37.4614 21.7751C37.2044 21.1177 36.8614 20.5611 36.305 20.0061C35.7486 19.4511 35.1902 19.1101 34.5316 18.8565C33.8952 18.6103 33.1682 18.4425 32.1038 18.3965C31.0393 18.3505 30.6967 18.3387 27.9809 18.3439C25.2651 18.3491 24.9251 18.3607 23.8585 18.4127ZM23.9753 36.4904C23.0003 36.448 22.4709 36.286 22.1181 36.1504C21.6509 35.9704 21.318 35.7528 20.9664 35.4046C20.6148 35.0564 20.3988 34.7224 20.2164 34.2562C20.0794 33.9034 19.9144 33.3746 19.8688 32.3996C19.8192 31.3458 19.8088 31.0294 19.803 28.3595C19.7972 25.6897 19.8074 25.3737 19.8536 24.3195C19.8952 23.3453 20.0582 22.8153 20.1936 22.4627C20.3736 21.9949 20.5904 21.6627 20.9394 21.3113C21.2884 20.9599 21.6215 20.7435 22.0881 20.5611C22.4405 20.4235 22.9693 20.2599 23.9439 20.2135C24.9985 20.1635 25.3145 20.1535 27.9839 20.1477C30.6533 20.1419 30.9701 20.1519 32.0252 20.1983C32.9994 20.2407 33.5296 20.4021 33.8818 20.5383C34.3492 20.7183 34.6818 20.9345 35.0332 21.2841C35.3846 21.6337 35.6012 21.9655 35.7836 22.4331C35.9214 22.7845 36.085 23.3131 36.131 24.2883C36.1812 25.3429 36.1926 25.6591 36.1974 28.3283C36.2022 30.9976 36.1928 31.3146 36.1466 32.3684C36.104 33.3434 35.9424 33.873 35.8066 34.2262C35.6266 34.6932 35.4096 35.0262 35.0604 35.3774C34.7112 35.7286 34.3786 35.945 33.9118 36.1274C33.5598 36.2648 33.0304 36.4288 32.0566 36.4752C31.0019 36.5248 30.6859 36.5352 28.0155 36.541C25.3451 36.5468 25.0301 36.536 23.9755 36.4904M32.1276 22.9981C32.128 23.2355 32.1987 23.4674 32.3309 23.6645C32.4631 23.8616 32.6508 24.0151 32.8703 24.1056C33.0897 24.196 33.3311 24.2194 33.5638 24.1726C33.7965 24.1259 34.0101 24.0112 34.1777 23.8431C34.3452 23.675 34.4591 23.4609 34.505 23.228C34.5508 22.9951 34.5266 22.7539 34.4354 22.5348C34.3441 22.3157 34.1899 22.1285 33.9923 21.9971C33.7947 21.8656 33.5625 21.7956 33.3252 21.7961C33.007 21.7968 32.7021 21.9237 32.4775 22.1492C32.2529 22.3746 32.127 22.6799 32.1276 22.9981ZM22.8655 28.3527C22.8711 31.1888 25.1743 33.4826 28.0097 33.4772C30.8451 33.4718 33.1406 31.1688 33.1352 28.3327C33.1298 25.4967 30.8259 23.2023 27.9901 23.2079C25.1543 23.2135 22.8601 25.5171 22.8655 28.3527ZM24.6667 28.3491C24.6654 27.6899 24.8596 27.045 25.2248 26.4961C25.59 25.9472 26.1098 25.5189 26.7184 25.2654C27.327 25.0119 27.9971 24.9446 28.644 25.0719C29.2908 25.1993 29.8854 25.5156 30.3525 25.9808C30.8196 26.4461 31.1383 27.0394 31.2682 27.6858C31.3981 28.3321 31.3334 29.0025 31.0823 29.6121C30.8312 30.2217 30.405 30.7431 29.8576 31.1105C29.3101 31.4779 28.666 31.6747 28.0067 31.676C27.5689 31.6769 27.1353 31.5916 26.7305 31.4249C26.3257 31.2582 25.9577 31.0133 25.6476 30.7044C25.3374 30.3955 25.0911 30.0285 24.9228 29.6243C24.7545 29.2202 24.6675 28.7869 24.6667 28.3491Z" fill="white"></path>
</svg>
