<svg width="87" height="115" viewBox="0 0 87 115" fill="none" xmlns="http://www.w3.org/2000/svg">
<path fill-rule="evenodd" clip-rule="evenodd" d="M43.8592 0.0654046C43.5674 0.148764 43.0672 0.398842 42.7338 0.628081C42.4003 0.83648 42.0043 1.27412 41.8584 1.58671C41.6917 1.92015 41.5667 2.54535 41.5667 3.00383C41.5667 3.4623 41.6709 4.04582 41.8168 4.2959C41.9418 4.56682 42.2961 4.98361 42.5879 5.25453C42.8797 5.50461 43.3173 5.77553 43.5466 5.83805C43.9217 5.96309 43.9425 6.08813 43.7967 7.04676C43.7133 7.63028 43.5049 9.23495 43.3382 10.6104C43.1714 11.9858 42.9005 14.049 42.7338 15.1951C42.567 16.3413 42.2753 18.0294 42.1085 18.9463C41.9418 19.8633 41.5458 21.5513 41.2541 22.6975C40.9414 23.8437 40.4413 25.24 40.1495 25.8026C39.8369 26.3653 39.2533 27.1989 38.8573 27.6574C38.4614 28.1159 37.7111 28.7827 37.1901 29.1162C36.669 29.4705 35.7312 29.9289 35.106 30.1582C34.2932 30.4291 33.397 30.5541 31.9798 30.5541C30.3751 30.5541 29.7707 30.4499 28.7495 30.054C28.0617 29.7831 27.0822 29.2621 26.5612 28.9078C26.0401 28.5743 25.3107 27.9283 24.9356 27.5115C24.5813 27.0947 24.1019 26.4487 23.9144 26.0736C23.7059 25.7193 23.3933 24.9899 23.2058 24.4689L22.8723 23.5311C24.1228 22.635 24.623 22.0515 24.7897 21.6555C24.9564 21.2595 25.1023 20.676 25.1023 20.3426C25.0815 20.03 24.873 19.4256 24.623 18.988C24.352 18.5295 23.831 18.0294 23.3308 17.7793C22.6847 17.4459 22.2888 17.3833 21.5593 17.5084C20.8507 17.6334 20.4131 17.8627 19.8504 18.467C19.1418 19.1756 19.0584 19.3631 19.0584 20.3426C19.0584 21.0789 19.1974 21.6694 19.4752 22.114C19.7045 22.4891 20.2672 22.9684 20.7048 23.156L21.5176 23.5311C20.6215 25.8026 20.1421 26.8446 19.8712 27.324C19.6003 27.8033 18.9959 28.6577 18.5374 29.1995C18.0372 29.7622 17.2869 30.3666 16.6617 30.6583C16.0573 30.9292 15.2237 31.1376 14.6818 31.1376C14.1608 31.1376 13.3688 30.9501 12.9103 30.7625C12.4518 30.5541 11.6599 30.0123 11.1597 29.5538C10.6595 29.1162 9.86754 28.1784 9.40904 27.4907C8.9297 26.803 8.11689 25.3025 7.57503 24.1563C7.03316 23.0101 6.11617 20.7386 5.53262 19.0922L4.46973 16.1329C5.44925 15.0909 5.80355 14.5491 5.86607 14.2574C5.92859 13.9656 5.92859 13.257 5.86607 12.6944C5.78271 11.8608 5.63682 11.5273 5.1158 11.0689C4.7615 10.7563 4.11543 10.4228 3.69861 10.3186C3.17759 10.1936 2.63572 10.1936 2.17722 10.3395C1.78124 10.4645 1.15601 10.8396 0.822554 11.2147C0.468258 11.569 0.113962 12.1942 0.0514389 12.5902C-0.031925 12.9861 -0.0110831 13.653 0.0931218 14.049C0.197327 14.4449 0.551623 15.0284 0.864237 15.341C1.17685 15.6536 1.80208 16.0287 2.26058 16.1746C3.05254 16.4455 3.07338 16.4872 3.55272 18.2169C3.82366 19.1964 4.38636 21.2179 4.7615 22.6975C5.15748 24.1771 5.97028 27.1989 6.55383 29.3663C7.15821 31.5336 7.86681 34.1803 8.13774 35.2014C8.40867 36.2226 8.88802 38.0148 9.17979 39.161C9.47156 40.3072 9.78418 41.3283 9.8467 41.4117C9.93006 41.5159 10.8471 41.3075 11.8683 40.9741C12.8895 40.6198 15.3279 39.7654 17.2869 39.0568C19.246 38.3691 21.8719 37.5146 23.1224 37.1812C24.3729 36.8478 26.7279 36.2851 28.3326 35.9517C29.9374 35.6182 32.3758 35.2014 33.7513 35.0139C35.1268 34.8471 37.0859 34.5971 38.1279 34.4929C39.17 34.3678 41.9835 34.2636 44.3802 34.2636C46.7978 34.2636 50.1115 34.4095 51.7788 34.5762C53.446 34.7429 55.4468 34.993 56.2596 35.0972C57.0724 35.2223 58.698 35.514 59.9067 35.7641C61.1155 35.9933 63.3247 36.4935 64.8044 36.8895C66.2841 37.2646 68.0764 37.7856 68.7641 38.0356C69.4519 38.2857 71.5985 39.036 73.5576 39.7237C75.5166 40.4114 77.4965 41.0991 77.9967 41.2658C78.476 41.4325 78.9137 41.5367 78.9345 41.4951C78.9762 41.4742 79.4139 39.9112 79.9141 38.0148C80.3934 36.1184 80.9144 34.1594 81.0603 33.6384C81.2271 33.1174 81.6439 31.5753 81.9982 30.1999C82.3733 28.8244 82.9777 26.532 83.3737 25.0941C83.7488 23.6561 84.0614 22.3015 84.0614 22.0723C84.0406 21.7389 84.0197 21.718 83.9572 22.0098C83.9155 22.2182 83.7697 22.3849 83.6655 22.3849C83.5612 22.3849 83.2903 22.239 83.1027 22.0515C82.8943 21.8847 82.6651 21.8014 82.6026 21.9056C82.54 21.9889 82.1232 22.8642 81.6856 23.8437C81.2271 24.8232 80.4559 26.2611 79.9349 27.0739C79.4347 27.8866 78.6844 28.8869 78.2676 29.3246C77.8508 29.7622 77.0589 30.3457 76.4753 30.6375C75.7459 30.9918 75.0998 31.1376 74.287 31.1376C73.5228 31.1376 72.8351 30.9779 72.2237 30.6583C71.7027 30.4083 70.8691 29.7205 70.3689 29.1579C69.8479 28.5743 69.0768 27.3656 68.6391 26.4487C68.2014 25.5317 67.7846 24.4897 67.7013 24.1563C67.597 23.5728 67.6387 23.5103 68.4724 23.1143C68.9517 22.8851 69.5353 22.4057 69.7437 22.0723C69.9521 21.718 70.1188 21.0511 70.1188 20.5093C70.1188 19.9466 69.9521 19.3006 69.702 18.8838C69.4519 18.4878 68.8892 18.0502 68.3056 17.7793C67.4095 17.3833 67.2219 17.3625 66.5758 17.5917C66.1799 17.7376 65.5963 18.071 65.2629 18.3003C64.9503 18.5504 64.5959 19.0297 64.4501 19.3631C64.325 19.7174 64.2625 20.3843 64.3459 20.9261C64.4292 21.5513 64.6585 22.0515 65.0545 22.4474C65.3671 22.76 65.8047 23.0726 66.0131 23.1143C66.2632 23.1977 66.3257 23.3435 66.2424 23.677C66.1799 23.9479 65.9715 24.4897 65.7839 24.8857C65.6172 25.2816 65.0961 26.1361 64.6376 26.7613C64.1583 27.3865 63.5539 28.1159 63.2621 28.3868C62.9704 28.6577 62.3451 29.0953 61.8866 29.3663C61.4281 29.6372 60.4903 30.0123 59.8025 30.2207C58.8647 30.4708 58.1352 30.5333 56.8848 30.4499C55.9678 30.3874 54.8632 30.2207 54.4464 30.1165C54.0087 29.9915 53.2585 29.5747 52.7791 29.1995C52.2998 28.8453 51.4661 27.8866 50.9243 27.0739C50.4032 26.2611 49.6738 24.9065 49.3195 24.0521C48.9652 23.1977 48.4442 21.6347 48.1524 20.6135C47.8815 19.5924 47.4438 17.7585 47.1937 16.5497C46.9436 15.341 46.6102 13.5696 46.4435 12.5902C46.2976 11.6107 46.0058 9.69342 45.8182 8.31799C45.5473 6.25485 45.5265 5.79637 45.7765 5.71301C45.9224 5.67133 46.235 5.44209 46.4643 5.19201C46.6936 4.96277 47.0062 4.56682 47.152 4.2959C47.2771 4.04582 47.4021 3.44146 47.4021 2.94131C47.4021 2.44115 47.2146 1.77427 46.9853 1.37832C46.7561 1.02404 46.3184 0.586401 46.0058 0.419682C45.6723 0.273803 45.193 0.0862445 44.9012 0.0445648C44.6095 -0.0179548 44.1509 -0.0179548 43.8592 0.0654046ZM40.212 36.556C38.6072 36.6394 36.3981 36.8269 35.3144 36.952C34.2306 37.0978 32.6259 37.3271 31.7714 37.4938C30.9169 37.6605 29.2288 38.0148 28.02 38.2857C26.8113 38.5775 24.6646 39.1402 23.2266 39.5569C21.7886 39.9529 19.7253 40.6198 18.6416 41.0366C17.1619 41.5784 16.8701 41.7451 17.4953 41.6618C17.9538 41.6201 18.8917 41.5159 19.5794 41.4534C20.2672 41.3909 22.1429 41.245 23.7476 41.1408C25.3524 41.0157 28.5827 40.8282 30.9378 40.724C33.2928 40.6198 39.6076 40.5364 45.0054 40.5364C50.4032 40.5364 56.5722 40.6198 58.7605 40.724C60.9488 40.8282 64.7002 41.0574 67.0969 41.245C69.4936 41.4117 71.661 41.5993 71.8903 41.6618C72.1195 41.7243 72.0153 41.6409 71.6819 41.4742C71.3484 41.3075 70.6815 41.0366 70.223 40.8699C69.7645 40.6823 68.4932 40.3072 67.4095 40.0154C66.3258 39.7028 63.929 39.1402 62.095 38.7442C60.261 38.3482 57.3016 37.8064 55.5301 37.5146C53.7586 37.2229 50.5908 36.8478 48.5067 36.681C46.4018 36.4935 44.3385 36.3685 43.9217 36.3893C43.484 36.4101 41.8168 36.4727 40.212 36.556ZM28.0409 48.8932C27.9367 49.1641 26.5195 53.3113 24.8939 58.1253C23.2683 62.9393 21.8094 67.2948 21.6635 67.8158C21.5176 68.3368 19.6628 73.9011 17.537 80.2155C15.4112 86.5092 13.6189 91.8442 13.5564 92.0317C13.473 92.3027 13.8065 92.8028 14.7443 93.7614C15.4529 94.5117 16.099 95.0535 16.1824 94.9702C16.2449 94.866 16.9118 92.8862 17.6621 90.5313C18.4123 88.1764 19.7253 84.0084 20.6215 81.2575C21.4968 78.5067 22.6639 74.8389 23.2266 73.13C23.7893 71.4003 24.8105 68.1701 25.5191 65.9402C26.2069 63.7104 26.8321 61.7306 26.8946 61.5639C26.9988 61.2929 27.0197 61.2929 27.1864 61.5639C27.2698 61.7306 28.1242 64.1272 29.0412 66.878C29.9791 69.6289 31.4171 73.8594 32.2299 76.256C33.0427 78.6525 33.7721 80.8199 33.8555 81.0491C33.9597 81.2784 34.1681 81.9036 34.3557 82.4454C34.5433 83.0081 34.8142 83.4457 34.9601 83.4457C35.0851 83.4457 35.9604 83.8 36.8774 84.2585C38.0237 84.8211 39.0658 85.5714 40.212 86.6551C41.525 87.8846 41.9418 88.1555 42.1502 87.968C42.2961 87.8221 42.4003 87.5303 42.4003 87.3011C42.4003 87.0719 42.0043 85.7173 41.4833 84.2793C40.9831 82.8414 39.6701 79.1527 38.5864 76.0476C37.4818 72.9424 34.9809 65.8777 33.0219 60.3135C31.0628 54.7492 29.2913 49.8102 29.1038 49.31C28.9162 48.8307 28.6244 48.4139 28.4785 48.4347C28.3326 48.4347 28.1451 48.6431 28.0409 48.8932ZM37.6069 49.2683V50.1019C39.7952 50.4562 40.9831 50.7271 41.6709 50.9564C42.7129 51.269 43.0047 51.4774 43.3798 52.1234C43.6299 52.561 43.9842 53.5405 44.151 54.3116C44.4427 55.5203 44.4844 57.7502 44.4844 69.9415L44.5052 84.1751C45.1513 83.3624 45.7349 82.6538 46.2142 82.0911C46.6936 81.5076 47.7148 80.4448 48.4859 79.6945L49.8614 78.3399C50.0281 57.4792 50.1115 55.6245 50.4032 54.3741C50.5908 53.5613 50.9243 52.6236 51.1327 52.2901C51.3619 51.9567 51.883 51.4982 52.3206 51.3106C52.7791 51.1231 53.4669 50.873 53.8628 50.748C54.2588 50.6438 55.28 50.4562 56.1137 50.3312L57.6142 50.1019V48.4347H37.6069V49.2683ZM65.7422 49.2058V49.9977C69.0351 50.5812 69.9521 50.8522 70.1813 51.0814C70.3897 51.2898 70.5982 51.7483 70.6607 52.0817C70.744 52.4151 70.6815 53.2279 70.5356 53.8531C70.3897 54.4783 69.8896 55.7079 69.4311 56.5623C68.9726 57.4167 68.2223 58.688 67.7429 59.3757C67.2844 60.0634 65.9715 61.7931 64.8252 63.231C63.679 64.669 62.6994 65.8777 62.6161 65.9402C62.5535 66.0027 61.4698 67.3157 60.2193 68.8578C58.9689 70.4 57.5309 72.1922 57.0098 72.8174C56.4888 73.4426 55.8427 74.1928 55.5926 74.4846C55.3426 74.7763 55.155 75.0264 55.1758 75.0472C55.1967 75.0889 55.7385 74.943 56.3638 74.7138C56.989 74.5054 57.8435 74.2762 58.2395 74.2136C58.8647 74.0886 59.2815 73.6926 61.1572 71.4211C62.3451 69.9415 65.3879 66.1903 67.9305 63.0435C70.4523 59.9175 72.8281 56.9166 73.2241 56.3747C73.6201 55.8537 74.808 54.5617 75.8292 53.4988C77.1631 52.1651 78.0801 51.4357 78.872 51.0606C79.4973 50.7688 80.3934 50.4979 80.8519 50.4354C81.3104 50.3937 82.3733 50.2895 83.2069 50.227L84.7075 50.1019L84.6033 48.4347H65.7422V49.2058ZM23.5392 50.6021C22.518 50.873 21.205 51.2898 20.6215 51.4982C20.0588 51.7274 18.6416 52.3943 17.4953 52.957C16.3491 53.5405 14.7026 54.4991 13.8482 55.1243C12.9937 55.7287 11.3889 57.125 10.2844 58.2086C9.20063 59.3131 7.78344 61.0012 7.13737 61.9598C6.51214 62.9393 5.76187 64.1688 5.4701 64.669C5.19916 65.19 4.65729 66.3779 4.303 67.274C3.92786 68.1909 3.34431 70.0665 3.01086 71.4419C2.65656 72.8799 2.30226 75.1723 2.15638 76.7561C2.01049 78.465 1.96881 80.6532 2.05217 82.2787C2.13553 83.7791 2.38563 85.8423 2.59404 86.8634C2.80245 87.9054 3.17759 89.3642 3.44852 90.0936C3.69861 90.8439 4.21964 92.1151 4.59477 92.907C4.96991 93.7198 5.6785 94.991 6.15785 95.7204C6.63719 96.4706 7.88765 97.9294 8.95054 98.9506C10.1385 100.138 11.514 101.222 12.5977 101.868C13.5772 102.452 15.2028 103.264 16.2449 103.681C17.2661 104.077 18.975 104.598 19.9963 104.807C21.3718 105.098 22.7264 105.203 25.1023 105.203C27.4365 105.203 28.8328 105.098 30.1041 104.827C31.0837 104.619 32.7301 104.119 33.7513 103.702C34.7934 103.285 36.2731 102.577 37.065 102.097C37.8361 101.639 39.1074 100.68 39.8577 99.9926C40.608 99.3257 41.6083 98.1795 42.0877 97.4918C42.567 96.8249 43.3173 95.5954 43.755 94.7826C44.1926 93.9907 44.7762 92.907 45.068 92.386C45.3597 91.8859 46.0683 90.698 46.6519 89.781C47.2354 88.8849 48.1941 87.4678 48.7776 86.6551C49.3612 85.8631 50.4449 84.5502 51.1744 83.7583C51.9038 82.9872 53.0292 81.9452 53.6544 81.4451C54.2797 80.9658 55.28 80.3406 55.8427 80.0488C56.4263 79.757 57.6142 79.3611 58.5104 79.1944C59.3857 79.0068 60.4486 78.8401 60.8446 78.8401C61.2406 78.8401 62.2618 78.986 63.0954 79.1735C63.9082 79.3611 65.0545 79.7571 65.6172 80.0697C66.159 80.3614 67.0135 80.9866 67.4928 81.4451C67.993 81.9244 68.6599 82.758 68.9934 83.3207C69.3269 83.9042 69.7645 84.8837 69.9521 85.5089C70.2022 86.2383 70.3272 87.3011 70.3272 88.3222C70.3272 89.4684 70.1813 90.4479 69.8896 91.344C69.6603 92.0943 69.1601 93.2613 68.8058 93.949C68.4307 94.6159 67.5762 95.7829 66.8676 96.554C66.1799 97.3042 64.9502 98.3879 64.1583 98.9506C63.3663 99.5132 62.2618 100.201 61.6782 100.451C61.1155 100.701 59.9901 101.076 59.1773 101.264C58.0727 101.535 57.1766 101.576 55.5301 101.493C54.1963 101.41 52.8833 101.222 52.1956 100.972C51.5703 100.743 50.7992 100.451 50.4658 100.284L49.8822 99.9926L49.9239 88.9474C48.6526 90.7397 47.423 92.8028 46.3601 94.6784C45.318 96.5748 44.0467 98.6588 43.5257 99.3257C43.0255 99.9926 42.6087 100.597 42.6087 100.68C42.6087 100.764 43.0255 101.139 43.5466 101.514L44.4844 102.181C44.4844 104.536 44.3802 105.786 44.276 106.453C44.151 107.141 43.9217 107.995 43.755 108.329C43.6091 108.683 43.2131 109.225 42.8796 109.516C42.567 109.829 41.8793 110.267 41.3583 110.517C40.8372 110.746 39.816 111.059 39.0658 111.204L37.7111 111.475L37.6069 113.226H56.7806L56.6764 111.475C54.5714 111.059 53.5502 110.746 53.0292 110.496C52.5082 110.267 51.8413 109.787 51.5287 109.412C51.216 109.058 50.8201 108.287 50.6325 107.703C50.4658 107.141 50.2574 105.974 50.174 105.119C50.0073 103.64 50.0281 103.598 50.4241 103.723C50.6533 103.785 51.6329 103.994 52.6124 104.161C53.5919 104.348 55.1341 104.473 56.0512 104.473C56.9682 104.473 58.5729 104.286 59.5941 104.056C60.6987 103.827 62.2826 103.264 63.4497 102.702C64.5334 102.16 66.034 101.243 66.7634 100.659C67.4928 100.076 68.6808 98.8255 69.4102 97.9086C70.1396 97.0125 71.1609 95.4078 71.6819 94.3658C72.2029 93.3447 72.8073 91.74 73.0574 90.823C73.37 89.656 73.495 88.5306 73.495 86.9677C73.495 85.3421 73.3908 84.446 73.0574 83.4249C72.8281 82.6955 72.3696 81.6535 72.0362 81.1325C71.7027 80.6323 71.0775 79.8613 70.619 79.4236C70.1813 79.0068 69.5769 78.465 69.2852 78.2149C68.9934 77.9648 68.2014 77.5063 67.5137 77.1937C66.8259 76.8812 65.7422 76.4852 65.117 76.3393C64.4917 76.1726 63.0746 76.0684 61.9908 76.0684C60.7612 76.0892 59.3857 76.2768 58.3437 76.5477C57.4267 76.777 55.9261 77.3396 55.0091 77.7773C54.0921 78.2357 52.6332 79.1527 51.7788 79.8404C50.9243 80.5281 49.7363 81.591 49.1736 82.2162C48.5901 82.8205 47.7356 83.8 47.2771 84.3627C46.8186 84.9462 46.0475 85.9882 45.589 86.6551C45.1305 87.3428 44.4636 88.4264 44.1301 89.0516C43.7758 89.6977 42.8588 91.4691 42.0669 93.0112C40.9414 95.2411 40.3579 96.1372 39.2742 97.2625C38.5239 98.0545 37.3985 98.9922 36.7732 99.3674C36.148 99.7425 35.0018 100.305 34.2306 100.597C33.4387 100.91 31.8131 101.285 30.5835 101.472C28.7911 101.722 27.9367 101.743 26.4153 101.576C25.3524 101.451 24.0811 101.264 23.6017 101.16C23.1016 101.055 21.997 100.722 21.1425 100.43C20.288 100.118 18.8708 99.4924 18.0164 99.0339C17.1619 98.5754 15.9323 97.7835 15.307 97.3042C14.6818 96.8041 13.5981 95.8037 12.8895 95.0744C12.2017 94.345 11.2639 93.1779 10.7845 92.4902C10.326 91.8233 9.65913 90.6771 9.32568 89.9894C8.97138 89.3226 8.45035 87.9888 8.13774 87.0719C7.82512 86.1757 7.44999 84.5711 7.28326 83.5291C7.11653 82.5079 6.97064 80.2989 6.97064 78.6317C6.97064 76.9437 7.11653 74.7555 7.28326 73.6301C7.47083 72.5465 7.84596 70.8584 8.15858 69.879C8.45035 68.9203 8.95054 67.5657 9.26315 66.8572C9.57577 66.1695 10.2427 64.9607 10.722 64.148C11.2014 63.3561 12.035 62.189 12.556 61.543C13.0771 60.9178 13.9315 60.0009 14.4526 59.5007C14.9736 59.0214 15.9739 58.167 16.6617 57.646C17.3495 57.1041 18.6624 56.2288 19.5794 55.7078C20.4964 55.1869 22.0178 54.4366 22.9557 54.0407L24.6646 53.3113C25.3732 51.2273 25.6025 50.4979 25.6233 50.352C25.665 50.2061 25.6233 50.1019 25.54 50.1019C25.4774 50.1019 24.5813 50.3312 23.5392 50.6021ZM58.7188 81.4659C58.1144 81.6326 57.1557 82.0078 56.5722 82.2995C56.0095 82.5704 55.5301 82.8622 55.5301 82.9247C55.5301 82.9664 56.593 84.446 57.8852 86.1966C59.1773 87.9471 61.2197 90.7188 62.4285 92.3652C63.6164 94.0115 64.6376 95.387 64.7001 95.4286C64.7627 95.4703 65.1795 95.0327 65.638 94.47C66.0965 93.9073 66.7217 92.9487 67.0552 92.3443C67.3678 91.74 67.6179 91.0939 67.6179 90.8855C67.6179 90.6771 67.2844 90.0311 66.8468 89.4268C66.43 88.8224 65.4713 87.4886 64.7418 86.4675C63.9916 85.4255 62.8245 83.8 62.1576 82.8622C61.1363 81.4034 60.8654 81.1533 60.3861 81.1533C60.0526 81.1742 59.3023 81.2992 58.7188 81.4659ZM30.3125 85.3005C29.7915 85.4047 28.9162 85.6964 28.3535 85.9673C27.7699 86.2383 26.8529 86.926 26.2902 87.5095C25.7275 88.0722 24.9773 89.1558 24.623 89.9061C24.1436 90.8855 23.9352 91.6149 23.8935 92.6153C23.831 93.5947 23.9352 94.2616 24.2478 95.116C24.4979 95.8038 25.1231 96.7415 25.79 97.5126C26.3944 98.1795 27.374 99.0548 27.9367 99.4299C28.5411 99.8258 29.208 100.097 29.5831 100.076C29.9374 100.076 30.8544 99.9092 31.6255 99.7216C32.4175 99.5341 33.0219 99.284 33.001 99.1798C32.9802 99.0548 32.5217 98.8047 32.0007 98.5963C31.4796 98.4087 30.771 98.0961 30.4167 97.8877C30.0833 97.7002 29.3122 97.075 28.7495 96.4915C28.0617 95.7829 27.5615 95.0535 27.3323 94.3866C27.1447 93.8031 26.978 93.0112 26.978 92.6153C26.978 92.1985 27.1656 91.5107 27.374 91.0523C27.5615 90.573 28.0617 89.9269 28.4577 89.5935C28.8537 89.26 29.5831 88.8016 30.1041 88.5932C30.8336 88.2597 31.2921 88.1972 32.1882 88.3014C32.8135 88.3639 33.8138 88.6557 34.3765 88.9474C34.9601 89.2184 35.8771 89.8644 36.4398 90.3437C37.0025 90.8439 37.8778 91.8233 38.3572 92.5111L39.2533 93.7614C40.3996 91.4065 40.733 90.6355 40.733 90.5313C40.733 90.4062 40.0036 89.5726 39.1283 88.6765C37.8987 87.447 37.1275 86.8634 35.9396 86.3008C35.0851 85.884 33.7721 85.4463 33.0219 85.3213C32.2716 85.1963 31.5838 85.1129 31.4588 85.1337C31.3546 85.1337 30.8336 85.2171 30.3125 85.3005ZM71.536 98.9089C70.9941 99.6174 70.223 100.534 69.8062 100.951C69.4102 101.347 69.0768 101.806 69.0768 101.993C69.0768 102.16 69.2643 102.577 69.5144 102.931C69.7437 103.264 70.3689 104.39 70.8899 105.432C71.5777 106.786 71.8486 107.557 71.8486 108.245C71.8486 108.745 71.7444 109.391 71.6194 109.641C71.4735 109.891 70.9733 110.287 70.4939 110.517C69.9938 110.746 68.8267 111.059 67.868 111.204L66.159 111.475V113.247H87C87 111.663 86.9375 111.559 86.4373 111.454C86.1038 111.392 85.5203 111.267 85.1243 111.163C84.7283 111.059 83.8322 110.6 83.1444 110.142C82.4567 109.704 81.3938 108.766 80.7685 108.099C80.1433 107.432 79.1221 106.224 78.476 105.432C77.83 104.619 76.9755 103.514 76.5795 102.973C76.1835 102.431 75.1415 101.014 74.287 99.805C73.4325 98.5963 72.6823 97.596 72.6197 97.6168C72.5572 97.6168 72.0779 98.2003 71.536 98.9089ZM9.78418 103.16C9.70081 103.369 9.26315 104.536 8.78381 105.744C8.32531 106.932 7.63756 108.558 7.24158 109.329C6.86644 110.1 6.24121 111.017 5.88691 111.35C5.51178 111.684 4.82402 112.08 4.36552 112.205C3.90702 112.351 3.40684 112.496 3.28179 112.538C3.11506 112.58 3.01086 112.955 3.01086 113.455V114.289C13.2646 114.351 16.5575 114.351 16.9326 114.33C17.5579 114.289 17.5995 114.226 17.5995 113.455C17.5995 112.747 17.5162 112.601 17.141 112.517C16.8701 112.455 16.4533 112.413 16.2032 112.413C15.9323 112.413 15.2445 112.184 14.661 111.934C13.9315 111.621 13.4522 111.225 13.1604 110.746C12.827 110.183 12.7228 109.641 12.7019 108.454C12.7019 107.578 12.7644 106.39 12.8686 105.786L13.0145 104.702C11.3264 103.723 10.6387 103.285 10.3886 103.098C9.97175 102.785 9.93006 102.785 9.78418 103.16Z" fill="white"></path>
</svg>
